<?xml version="1.0" encoding="utf-8" standalone="no"?>
<!DOCTYPE svg PUBLIC "-//W3C//DTD SVG 1.1//EN"
  "http://www.w3.org/Graphics/SVG/1.1/DTD/svg11.dtd">
<!-- Created with matplotlib (https://matplotlib.org/) -->
<svg height="196.012732pt" version="1.1" viewBox="0 0 1133.858268 196.012732" width="1133.858268pt" xmlns="http://www.w3.org/2000/svg" xmlns:xlink="http://www.w3.org/1999/xlink">
 <defs>
  <style type="text/css">
*{stroke-linecap:butt;stroke-linejoin:round;}
  </style>
 </defs>
 <g id="figure_1">
  <g id="patch_1">
   <path d="M 0 196.012732 
L 1133.858268 196.012732 
L 1133.858268 0 
L 0 0 
z
" style="fill:#ffffff;"/>
  </g>
  <g id="axes_1">
   <g id="patch_2">
    <path clip-path="url(#pc658a4e0f0)" d="M 172.887621 6.857846 
L 630.900975 6.857846 
L 630.900975 19.076146 
L 172.887621 19.076146 
z
" style="fill:none;stroke:#007a29;stroke-linejoin:miter;stroke-width:3;"/>
   </g>
   <g id="text_1">
    <!-- EC2 -->
    <defs>
     <path d="M 9.8125 72.90625 
L 55.90625 72.90625 
L 55.90625 64.59375 
L 19.671875 64.59375 
L 19.671875 43.015625 
L 54.390625 43.015625 
L 54.390625 34.71875 
L 19.671875 34.71875 
L 19.671875 8.296875 
L 56.78125 8.296875 
L 56.78125 0 
L 9.8125 0 
z
" id="DejaVuSans-69"/>
     <path d="M 64.40625 67.28125 
L 64.40625 56.890625 
Q 59.421875 61.53125 53.78125 63.8125 
Q 48.140625 66.109375 41.796875 66.109375 
Q 29.296875 66.109375 22.65625 58.46875 
Q 16.015625 50.828125 16.015625 36.375 
Q 16.015625 21.96875 22.65625 14.328125 
Q 29.296875 6.6875 41.796875 6.6875 
Q 48.140625 6.6875 53.78125 8.984375 
Q 59.421875 11.28125 64.40625 15.921875 
L 64.40625 5.609375 
Q 59.234375 2.09375 53.4375 0.328125 
Q 47.65625 -1.421875 41.21875 -1.421875 
Q 24.65625 -1.421875 15.125 8.703125 
Q 5.609375 18.84375 5.609375 36.375 
Q 5.609375 53.953125 15.125 64.078125 
Q 24.65625 74.21875 41.21875 74.21875 
Q 47.75 74.21875 53.53125 72.484375 
Q 59.328125 70.75 64.40625 67.28125 
z
" id="DejaVuSans-67"/>
     <path d="M 19.1875 8.296875 
L 53.609375 8.296875 
L 53.609375 0 
L 7.328125 0 
L 7.328125 8.296875 
Q 12.9375 14.109375 22.625 23.890625 
Q 32.328125 33.6875 34.8125 36.53125 
Q 39.546875 41.84375 41.421875 45.53125 
Q 43.3125 49.21875 43.3125 52.78125 
Q 43.3125 58.59375 39.234375 62.25 
Q 35.15625 65.921875 28.609375 65.921875 
Q 23.96875 65.921875 18.8125 64.3125 
Q 13.671875 62.703125 7.8125 59.421875 
L 7.8125 69.390625 
Q 13.765625 71.78125 18.9375 73 
Q 24.125 74.21875 28.421875 74.21875 
Q 39.75 74.21875 46.484375 68.546875 
Q 53.21875 62.890625 53.21875 53.421875 
Q 53.21875 48.921875 51.53125 44.890625 
Q 49.859375 40.875 45.40625 35.40625 
Q 44.1875 33.984375 37.640625 27.21875 
Q 31.109375 20.453125 19.1875 8.296875 
z
" id="DejaVuSans-50"/>
    </defs>
    <g transform="translate(633.648822 16.278246)scale(0.12 -0.12)">
     <use xlink:href="#DejaVuSans-69"/>
     <use x="63.183594" xlink:href="#DejaVuSans-67"/>
     <use x="133.007812" xlink:href="#DejaVuSans-50"/>
    </g>
   </g>
  </g>
  <g id="axes_2"/>
  <g id="axes_3"/>
  <g id="axes_4">
   <g id="PolyCollection_1">
    <defs>
     <path d="M 58.472025 -34.226839 
L 58.472025 -36.112651 
L 59.848701 -36.112651 
L 61.225378 -36.112651 
L 62.602054 -36.112651 
L 63.978731 -36.112651 
L 65.355407 -36.112651 
L 66.732083 -36.112651 
L 68.10876 -36.112651 
L 69.485436 -35.358328 
L 70.862113 -34.981166 
L 72.238789 -35.358454 
L 73.615465 -35.358454 
L 74.992142 -35.358454 
L 76.368818 -34.981288 
L 77.745495 -36.112777 
L 79.122171 -36.490064 
L 80.498848 -36.490064 
L 81.875524 -36.867351 
L 83.2522 -36.867351 
L 84.628877 -36.867351 
L 86.005553 -36.867351 
L 87.38223 -37.621801 
L 88.758906 -37.621801 
L 90.135583 -37.621801 
L 91.512259 -37.621801 
L 92.888935 -37.621801 
L 94.265612 -37.998966 
L 95.642288 -37.998966 
L 97.018965 -37.621679 
L 98.395641 -37.621679 
L 99.772318 -37.998849 
L 101.148994 -37.998849 
L 102.52567 -37.244513 
L 103.902347 -36.867226 
L 105.279023 -36.867226 
L 106.6557 -37.244274 
L 108.032376 -36.867105 
L 109.409053 -36.867105 
L 110.785729 -36.867105 
L 112.162405 -36.489817 
L 113.539082 -37.244274 
L 114.915758 -37.621424 
L 116.292435 -37.998711 
L 117.669111 -37.998711 
L 119.045788 -37.998711 
L 120.422464 -38.375991 
L 121.79914 -38.375991 
L 123.175817 -38.375991 
L 124.552493 -37.998849 
L 125.92917 -37.998966 
L 127.305846 -39.130695 
L 128.682523 -39.130695 
L 130.059199 -39.130695 
L 131.435875 -38.376396 
L 132.812552 -38.376396 
L 134.189228 -38.376396 
L 135.565905 -38.753687 
L 136.942581 -38.753687 
L 138.319258 -38.753768 
L 139.695934 -38.376598 
L 141.07261 -37.999347 
L 142.449287 -38.376598 
L 143.825963 -38.376598 
L 145.20264 -37.999347 
L 146.579316 -37.999347 
L 147.955992 -37.999347 
L 149.332669 -38.376517 
L 150.709345 -37.999218 
L 152.086022 -36.867473 
L 153.462698 -37.244639 
L 154.839375 -37.621926 
L 156.216051 -37.621926 
L 157.592727 -38.376396 
L 158.969404 -38.753687 
L 160.34608 -38.376517 
L 161.722757 -38.376517 
L 163.099433 -38.376234 
L 164.47611 -38.376234 
L 165.852786 -38.376234 
L 167.229462 -37.998966 
L 168.606139 -37.998966 
L 169.982815 -38.753403 
L 171.359492 -38.753403 
L 172.736168 -38.753403 
L 174.112845 -38.376234 
L 175.489521 -38.376234 
L 176.866197 -38.753525 
L 178.242874 -38.753525 
L 179.61955 -38.376234 
L 180.996227 -38.753525 
L 182.372903 -37.999088 
L 183.74958 -38.376234 
L 185.126256 -38.376234 
L 186.502932 -37.999218 
L 187.879609 -38.376517 
L 189.256285 -38.753687 
L 190.632962 -38.753687 
L 192.009638 -38.753687 
L 193.386315 -38.753687 
L 194.762991 -38.376517 
L 196.139667 -38.376517 
L 197.516344 -38.376517 
L 198.89302 -38.376517 
L 200.269697 -38.376517 
L 201.646373 -38.376396 
L 203.02305 -37.999218 
L 204.399726 -37.999218 
L 205.776402 -37.999088 
L 207.153079 -38.376234 
L 208.529755 -38.376234 
L 209.906432 -38.376152 
L 211.283108 -38.375991 
L 212.659785 -37.998711 
L 214.036461 -38.375869 
L 215.413137 -38.375869 
L 216.789814 -38.375869 
L 218.16649 -38.375869 
L 219.543167 -37.998594 
L 220.919843 -37.998594 
L 222.296519 -38.375869 
L 223.673196 -38.753039 
L 225.049872 -38.753039 
L 226.426549 -38.375869 
L 227.803225 -39.130209 
L 229.179902 -39.507621 
L 230.556578 -39.507621 
L 231.933254 -38.753282 
L 233.309931 -38.753282 
L 234.686607 -38.753525 
L 236.063284 -38.753525 
L 237.43996 -38.753768 
L 238.816637 -39.131059 
L 240.193313 -39.131059 
L 241.569989 -39.508229 
L 242.946666 -40.639982 
L 244.323342 -40.639982 
L 245.700019 -40.639982 
L 247.076695 -40.26269 
L 248.453372 -39.88552 
L 249.830048 -40.639982 
L 251.206724 -40.640225 
L 252.583401 -40.640225 
L 253.960077 -41.394685 
L 255.336754 -41.771977 
L 256.71343 -41.394685 
L 258.090107 -41.017394 
L 259.466783 -42.149025 
L 260.843459 -42.903447 
L 262.220136 -43.280738 
L 263.596812 -44.789619 
L 264.973489 -45.921251 
L 266.350165 -46.67559 
L 267.726842 -46.67559 
L 269.103518 -47.430051 
L 270.480194 -48.561642 
L 271.856871 -50.070645 
L 273.233547 -50.070645 
L 274.610224 -49.316184 
L 275.9869 -48.561642 
L 277.363577 -49.315982 
L 278.740253 -49.315982 
L 280.116929 -49.315982 
L 281.493606 -49.315982 
L 282.870282 -49.315982 
L 284.246959 -47.807059 
L 285.623635 -47.807059 
L 287.000312 -47.052598 
L 288.376988 -45.920724 
L 289.753664 -44.034834 
L 291.130341 -42.903325 
L 292.507017 -42.903325 
L 293.883694 -42.526033 
L 295.26037 -41.394443 
L 296.637046 -40.63986 
L 298.013723 -41.01703 
L 299.390399 -41.01703 
L 300.767076 -40.262569 
L 302.143752 -39.885277 
L 303.520429 -39.885156 
L 304.897105 -40.262326 
L 306.273781 -40.639577 
L 307.650458 -40.639577 
L 309.027134 -40.262326 
L 310.403811 -39.507743 
L 311.780487 -39.885034 
L 313.157164 -40.262326 
L 314.53384 -40.262326 
L 315.910516 -39.507743 
L 317.287193 -39.507743 
L 318.663869 -39.885034 
L 320.040546 -39.130573 
L 321.417222 -39.507743 
L 322.793899 -39.130573 
L 324.170575 -39.130573 
L 325.547251 -38.753403 
L 326.923928 -39.130695 
L 328.300604 -38.753525 
L 329.677281 -38.753525 
L 331.053957 -38.376234 
L 332.430634 -38.753525 
L 333.80731 -38.753525 
L 335.183986 -38.753525 
L 336.560663 -37.999088 
L 337.937339 -37.621801 
L 339.314016 -37.621801 
L 340.690692 -37.621801 
L 342.067369 -37.621801 
L 343.444045 -37.998966 
L 344.820721 -37.998966 
L 346.197398 -37.998966 
L 347.574074 -38.376152 
L 348.950751 -38.376152 
L 350.327427 -38.376152 
L 351.704104 -37.998849 
L 353.08078 -37.244392 
L 354.457456 -37.244392 
L 355.834133 -37.244392 
L 357.210809 -36.867105 
L 358.587486 -36.867105 
L 359.964162 -37.244274 
L 361.340839 -37.621562 
L 362.717515 -38.375869 
L 364.094191 -38.753039 
L 365.470868 -38.753039 
L 366.847544 -38.375869 
L 368.224221 -39.130209 
L 369.600897 -39.130209 
L 370.977573 -39.5075 
L 372.35425 -40.2618 
L 373.730926 -40.2618 
L 375.107603 -39.88467 
L 376.484279 -41.39343 
L 377.860956 -41.39343 
L 379.237632 -41.39343 
L 380.614308 -41.39343 
L 381.990985 -41.393552 
L 383.367661 -41.770843 
L 384.744338 -41.770843 
L 386.121014 -42.147851 
L 387.497691 -42.525426 
L 388.874367 -42.525507 
L 390.251043 -44.411477 
L 391.62772 -45.165939 
L 393.004396 -45.92036 
L 394.381073 -45.920522 
L 395.757749 -47.806573 
L 397.134426 -50.446964 
L 398.511102 -51.578434 
L 399.887778 -51.955724 
L 401.264455 -53.464769 
L 402.641131 -54.596481 
L 404.017808 -56.859824 
L 405.394484 -57.236994 
L 406.771161 -56.482533 
L 408.147837 -57.236994 
L 409.524513 -58.746038 
L 410.90119 -58.745917 
L 412.277866 -59.123087 
L 413.654543 -59.122925 
L 415.031219 -57.236994 
L 416.407896 -56.482775 
L 417.784572 -56.482775 
L 419.161248 -56.482655 
L 420.537925 -54.219594 
L 421.914601 -51.956495 
L 423.291278 -51.579325 
L 424.667954 -51.579325 
L 426.044631 -49.693232 
L 427.421307 -48.56152 
L 428.797983 -46.675307 
L 430.17466 -46.675307 
L 431.551336 -46.675307 
L 432.928013 -45.920886 
L 434.304689 -44.034672 
L 435.681366 -43.280252 
L 437.058042 -42.525791 
L 438.434718 -42.148499 
L 439.811395 -41.771208 
L 441.188071 -41.393916 
L 442.564748 -39.885156 
L 443.941424 -39.130573 
L 445.3181 -39.130573 
L 446.694777 -39.507743 
L 448.071453 -39.507743 
L 449.44813 -38.375991 
L 450.824806 -38.375869 
L 452.201483 -38.375869 
L 453.578159 -38.375869 
L 454.954835 -38.375869 
L 456.331512 -38.375747 
L 457.708188 -38.753039 
L 459.084865 -39.5075 
L 460.461541 -39.5075 
L 461.838218 -39.5075 
L 463.214894 -40.261961 
L 464.59157 -40.639091 
L 465.968247 -42.148013 
L 467.344923 -42.902312 
L 468.7216 -43.657017 
L 470.098276 -43.657017 
L 471.474953 -42.902596 
L 472.851629 -44.03447 
L 474.228305 -45.543473 
L 475.604982 -45.920724 
L 476.981658 -45.920886 
L 478.358335 -46.298016 
L 479.735011 -46.298016 
L 481.111688 -46.298016 
L 482.488364 -47.052598 
L 483.86504 -47.42989 
L 485.241717 -47.42989 
L 486.618393 -48.18435 
L 487.99507 -48.18435 
L 489.371746 -48.18435 
L 490.748423 -47.42989 
L 492.125099 -47.42989 
L 493.501775 -47.429525 
L 494.878452 -47.429525 
L 496.255128 -47.052355 
L 497.631805 -45.543351 
L 499.008481 -44.411477 
L 500.385158 -44.411357 
L 501.761834 -44.034065 
L 503.13851 -43.656895 
L 504.515187 -43.279725 
L 505.891863 -42.902474 
L 507.26854 -41.770722 
L 508.645216 -41.7706 
L 510.021893 -41.770479 
L 511.398569 -41.01626 
L 512.775245 -40.639091 
L 514.151922 -40.2618 
L 515.528598 -39.88467 
L 516.905275 -39.13033 
L 518.281951 -38.375991 
L 519.658627 -38.753282 
L 521.035304 -38.753282 
L 522.41198 -38.753282 
L 523.788657 -37.621801 
L 525.165333 -37.621801 
L 526.54201 -37.999088 
L 527.918686 -37.999088 
L 529.295362 -37.999088 
L 530.672039 -38.376234 
L 532.048715 -38.376234 
L 533.425392 -37.999088 
L 534.802068 -37.244639 
L 536.178745 -36.867351 
L 537.555421 -36.867351 
L 538.932097 -36.490311 
L 540.308774 -36.867599 
L 541.68545 -37.24489 
L 543.062127 -37.24489 
L 544.438803 -37.622056 
L 545.81548 -38.376396 
L 547.192156 -39.130857 
L 548.568832 -39.508027 
L 549.945509 -40.639496 
L 551.322185 -42.148377 
L 552.698862 -42.148377 
L 554.075538 -42.525669 
L 555.452215 -42.525791 
L 556.828891 -44.034551 
L 558.205567 -45.543351 
L 559.582244 -46.674943 
L 560.95892 -47.429282 
L 562.335597 -47.05199 
L 563.712273 -47.806452 
L 565.08895 -48.560913 
L 566.465626 -50.069674 
L 567.842302 -53.464485 
L 569.218979 -54.596238 
L 570.595655 -55.350822 
L 571.972332 -59.123288 
L 573.349008 -59.123288 
L 574.725685 -57.991698 
L 576.102361 -59.123572 
L 577.479037 -59.123572 
L 578.855714 -59.877872 
L 580.23239 -59.877872 
L 581.609067 -59.50058 
L 582.985743 -58.74616 
L 584.36242 -57.991819 
L 585.739096 -57.23748 
L 587.115772 -57.614649 
L 588.492449 -56.483059 
L 589.869125 -56.105728 
L 591.245802 -54.974016 
L 592.622478 -51.201911 
L 593.999154 -49.31582 
L 595.375831 -47.806776 
L 596.752507 -43.657178 
L 598.129184 -43.280009 
L 599.50586 -42.525507 
L 600.882537 -41.393673 
L 602.259213 -41.393673 
L 603.635889 -39.884872 
L 605.012566 -39.130573 
L 606.389242 -39.130573 
L 607.765919 -39.507743 
L 609.142595 -39.507743 
L 610.519272 -39.884872 
L 611.895948 -39.884791 
L 613.272624 -40.639212 
L 614.649301 -40.262042 
L 616.025977 -39.884872 
L 617.402654 -39.884872 
L 618.77933 -40.262042 
L 620.156007 -40.262042 
L 621.532683 -40.262042 
L 622.909359 -39.884791 
L 624.286036 -39.884791 
L 625.662712 -40.262164 
L 627.039389 -40.262164 
L 628.416065 -39.884872 
L 629.792742 -39.507621 
L 631.169418 -38.753282 
L 632.546094 -38.753282 
L 633.922771 -38.753282 
L 635.299447 -38.376234 
L 636.676124 -38.376234 
L 638.0528 -37.999088 
L 639.429477 -37.999218 
L 640.806153 -37.999218 
L 642.182829 -38.376396 
L 643.559506 -37.999218 
L 644.936182 -38.376396 
L 646.312859 -38.376396 
L 647.689535 -38.376396 
L 649.066212 -38.376396 
L 650.442888 -37.999088 
L 651.819564 -37.999088 
L 653.196241 -37.621926 
L 654.572917 -37.999088 
L 655.949594 -37.999088 
L 657.32627 -38.753525 
L 658.702947 -38.753525 
L 660.079623 -38.376234 
L 661.456299 -38.376152 
L 662.832976 -38.376152 
L 664.209652 -38.375991 
L 665.586329 -38.375991 
L 666.963005 -38.375991 
L 668.339681 -38.375991 
L 669.716358 -37.998849 
L 671.093034 -37.621679 
L 672.469711 -37.998966 
L 673.846387 -37.998849 
L 675.223064 -38.753282 
L 676.59974 -38.753282 
L 677.976416 -38.753282 
L 679.353093 -38.753403 
L 680.729769 -37.998966 
L 682.106446 -37.621679 
L 683.483122 -37.621679 
L 684.859799 -37.244513 
L 686.236475 -37.244639 
L 687.613151 -37.621926 
L 688.989828 -37.24476 
L 690.366504 -37.24476 
L 691.743181 -36.867599 
L 693.119857 -36.867599 
L 694.496534 -36.867599 
L 695.87321 -36.867599 
L 697.249886 -36.490311 
L 698.626563 -36.113146 
L 700.003239 -35.358701 
L 701.379916 -35.358701 
L 702.756592 -35.358701 
L 704.133269 -34.981413 
L 705.509945 -34.981413 
L 706.886621 -34.981413 
L 708.263298 -34.981413 
L 709.639974 -34.981413 
L 711.016651 -35.358701 
L 712.393327 -34.981413 
L 713.770004 -34.981413 
L 715.14668 -35.735984 
L 716.523356 -35.735984 
L 717.900033 -35.735984 
L 719.276709 -35.735984 
L 720.653386 -35.735984 
L 722.030062 -36.490566 
L 723.406739 -36.490566 
L 724.783415 -36.490566 
L 726.160091 -36.490566 
L 727.536768 -36.490566 
L 728.913444 -36.867858 
L 730.290121 -36.867858 
L 731.666797 -36.867858 
L 733.043474 -36.867858 
L 734.42015 -36.490566 
L 735.796826 -36.490566 
L 737.173503 -36.490566 
L 738.550179 -36.490566 
L 739.926856 -35.735984 
L 741.303532 -36.113146 
L 742.680208 -36.113146 
L 744.056885 -36.490433 
L 745.433561 -36.113146 
L 745.433561 -34.226839 
L 745.433561 -34.226839 
L 744.056885 -34.226839 
L 742.680208 -34.226839 
L 741.303532 -34.226839 
L 739.926856 -34.226839 
L 738.550179 -34.226839 
L 737.173503 -34.226839 
L 735.796826 -34.226839 
L 734.42015 -34.226839 
L 733.043474 -34.226839 
L 731.666797 -34.226839 
L 730.290121 -34.226839 
L 728.913444 -34.226839 
L 727.536768 -34.226839 
L 726.160091 -34.226839 
L 724.783415 -34.226839 
L 723.406739 -34.226839 
L 722.030062 -34.226839 
L 720.653386 -34.226839 
L 719.276709 -34.226839 
L 717.900033 -34.226839 
L 716.523356 -34.226839 
L 715.14668 -34.226839 
L 713.770004 -34.226839 
L 712.393327 -34.226839 
L 711.016651 -34.226839 
L 709.639974 -34.226839 
L 708.263298 -34.226839 
L 706.886621 -34.226839 
L 705.509945 -34.226839 
L 704.133269 -34.226839 
L 702.756592 -34.226839 
L 701.379916 -34.226839 
L 700.003239 -34.226839 
L 698.626563 -34.226839 
L 697.249886 -34.226839 
L 695.87321 -34.226839 
L 694.496534 -34.226839 
L 693.119857 -34.226839 
L 691.743181 -34.226839 
L 690.366504 -34.226839 
L 688.989828 -34.226839 
L 687.613151 -34.226839 
L 686.236475 -34.226839 
L 684.859799 -34.226839 
L 683.483122 -34.226839 
L 682.106446 -34.226839 
L 680.729769 -34.226839 
L 679.353093 -34.226839 
L 677.976416 -34.226839 
L 676.59974 -34.226839 
L 675.223064 -34.226839 
L 673.846387 -34.226839 
L 672.469711 -34.226839 
L 671.093034 -34.226839 
L 669.716358 -34.226839 
L 668.339681 -34.226839 
L 666.963005 -34.226839 
L 665.586329 -34.226839 
L 664.209652 -34.226839 
L 662.832976 -34.226839 
L 661.456299 -34.226839 
L 660.079623 -34.226839 
L 658.702947 -34.226839 
L 657.32627 -34.226839 
L 655.949594 -34.226839 
L 654.572917 -34.226839 
L 653.196241 -34.226839 
L 651.819564 -34.226839 
L 650.442888 -34.226839 
L 649.066212 -34.226839 
L 647.689535 -34.226839 
L 646.312859 -34.226839 
L 644.936182 -34.226839 
L 643.559506 -34.226839 
L 642.182829 -34.226839 
L 640.806153 -34.226839 
L 639.429477 -34.226839 
L 638.0528 -34.226839 
L 636.676124 -34.226839 
L 635.299447 -34.226839 
L 633.922771 -34.226839 
L 632.546094 -34.226839 
L 631.169418 -34.226839 
L 629.792742 -34.226839 
L 628.416065 -34.226839 
L 627.039389 -34.226839 
L 625.662712 -34.226839 
L 624.286036 -34.226839 
L 622.909359 -34.226839 
L 621.532683 -34.226839 
L 620.156007 -34.226839 
L 618.77933 -34.226839 
L 617.402654 -34.226839 
L 616.025977 -34.226839 
L 614.649301 -34.226839 
L 613.272624 -34.226839 
L 611.895948 -34.226839 
L 610.519272 -34.226839 
L 609.142595 -34.226839 
L 607.765919 -34.226839 
L 606.389242 -34.226839 
L 605.012566 -34.226839 
L 603.635889 -34.226839 
L 602.259213 -34.226839 
L 600.882537 -34.226839 
L 599.50586 -34.226839 
L 598.129184 -34.226839 
L 596.752507 -34.226839 
L 595.375831 -34.226839 
L 593.999154 -34.226839 
L 592.622478 -34.226839 
L 591.245802 -34.226839 
L 589.869125 -34.226839 
L 588.492449 -34.226839 
L 587.115772 -34.226839 
L 585.739096 -34.226839 
L 584.36242 -34.226839 
L 582.985743 -34.226839 
L 581.609067 -34.226839 
L 580.23239 -34.226839 
L 578.855714 -34.226839 
L 577.479037 -34.226839 
L 576.102361 -34.226839 
L 574.725685 -34.226839 
L 573.349008 -34.226839 
L 571.972332 -34.226839 
L 570.595655 -34.226839 
L 569.218979 -34.226839 
L 567.842302 -34.226839 
L 566.465626 -34.226839 
L 565.08895 -34.226839 
L 563.712273 -34.226839 
L 562.335597 -34.226839 
L 560.95892 -34.226839 
L 559.582244 -34.226839 
L 558.205567 -34.226839 
L 556.828891 -34.226839 
L 555.452215 -34.226839 
L 554.075538 -34.226839 
L 552.698862 -34.226839 
L 551.322185 -34.226839 
L 549.945509 -34.226839 
L 548.568832 -34.226839 
L 547.192156 -34.226839 
L 545.81548 -34.226839 
L 544.438803 -34.226839 
L 543.062127 -34.226839 
L 541.68545 -34.226839 
L 540.308774 -34.226839 
L 538.932097 -34.226839 
L 537.555421 -34.226839 
L 536.178745 -34.226839 
L 534.802068 -34.226839 
L 533.425392 -34.226839 
L 532.048715 -34.226839 
L 530.672039 -34.226839 
L 529.295362 -34.226839 
L 527.918686 -34.226839 
L 526.54201 -34.226839 
L 525.165333 -34.226839 
L 523.788657 -34.226839 
L 522.41198 -34.226839 
L 521.035304 -34.226839 
L 519.658627 -34.226839 
L 518.281951 -34.226839 
L 516.905275 -34.226839 
L 515.528598 -34.226839 
L 514.151922 -34.226839 
L 512.775245 -34.226839 
L 511.398569 -34.226839 
L 510.021893 -34.226839 
L 508.645216 -34.226839 
L 507.26854 -34.226839 
L 505.891863 -34.226839 
L 504.515187 -34.226839 
L 503.13851 -34.226839 
L 501.761834 -34.226839 
L 500.385158 -34.226839 
L 499.008481 -34.226839 
L 497.631805 -34.226839 
L 496.255128 -34.226839 
L 494.878452 -34.226839 
L 493.501775 -34.226839 
L 492.125099 -34.226839 
L 490.748423 -34.226839 
L 489.371746 -34.226839 
L 487.99507 -34.226839 
L 486.618393 -34.226839 
L 485.241717 -34.226839 
L 483.86504 -34.226839 
L 482.488364 -34.226839 
L 481.111688 -34.226839 
L 479.735011 -34.226839 
L 478.358335 -34.226839 
L 476.981658 -34.226839 
L 475.604982 -34.226839 
L 474.228305 -34.226839 
L 472.851629 -34.226839 
L 471.474953 -34.226839 
L 470.098276 -34.226839 
L 468.7216 -34.226839 
L 467.344923 -34.226839 
L 465.968247 -34.226839 
L 464.59157 -34.226839 
L 463.214894 -34.226839 
L 461.838218 -34.226839 
L 460.461541 -34.226839 
L 459.084865 -34.226839 
L 457.708188 -34.226839 
L 456.331512 -34.226839 
L 454.954835 -34.226839 
L 453.578159 -34.226839 
L 452.201483 -34.226839 
L 450.824806 -34.226839 
L 449.44813 -34.226839 
L 448.071453 -34.226839 
L 446.694777 -34.226839 
L 445.3181 -34.226839 
L 443.941424 -34.226839 
L 442.564748 -34.226839 
L 441.188071 -34.226839 
L 439.811395 -34.226839 
L 438.434718 -34.226839 
L 437.058042 -34.226839 
L 435.681366 -34.226839 
L 434.304689 -34.226839 
L 432.928013 -34.226839 
L 431.551336 -34.226839 
L 430.17466 -34.226839 
L 428.797983 -34.226839 
L 427.421307 -34.226839 
L 426.044631 -34.226839 
L 424.667954 -34.226839 
L 423.291278 -34.226839 
L 421.914601 -34.226839 
L 420.537925 -34.226839 
L 419.161248 -34.226839 
L 417.784572 -34.226839 
L 416.407896 -34.226839 
L 415.031219 -34.226839 
L 413.654543 -34.226839 
L 412.277866 -34.226839 
L 410.90119 -34.226839 
L 409.524513 -34.226839 
L 408.147837 -34.226839 
L 406.771161 -34.226839 
L 405.394484 -34.226839 
L 404.017808 -34.226839 
L 402.641131 -34.226839 
L 401.264455 -34.226839 
L 399.887778 -34.226839 
L 398.511102 -34.226839 
L 397.134426 -34.226839 
L 395.757749 -34.226839 
L 394.381073 -34.226839 
L 393.004396 -34.226839 
L 391.62772 -34.226839 
L 390.251043 -34.226839 
L 388.874367 -34.226839 
L 387.497691 -34.226839 
L 386.121014 -34.226839 
L 384.744338 -34.226839 
L 383.367661 -34.226839 
L 381.990985 -34.226839 
L 380.614308 -34.226839 
L 379.237632 -34.226839 
L 377.860956 -34.226839 
L 376.484279 -34.226839 
L 375.107603 -34.226839 
L 373.730926 -34.226839 
L 372.35425 -34.226839 
L 370.977573 -34.226839 
L 369.600897 -34.226839 
L 368.224221 -34.226839 
L 366.847544 -34.226839 
L 365.470868 -34.226839 
L 364.094191 -34.226839 
L 362.717515 -34.226839 
L 361.340839 -34.226839 
L 359.964162 -34.226839 
L 358.587486 -34.226839 
L 357.210809 -34.226839 
L 355.834133 -34.226839 
L 354.457456 -34.226839 
L 353.08078 -34.226839 
L 351.704104 -34.226839 
L 350.327427 -34.226839 
L 348.950751 -34.226839 
L 347.574074 -34.226839 
L 346.197398 -34.226839 
L 344.820721 -34.226839 
L 343.444045 -34.226839 
L 342.067369 -34.226839 
L 340.690692 -34.226839 
L 339.314016 -34.226839 
L 337.937339 -34.226839 
L 336.560663 -34.226839 
L 335.183986 -34.226839 
L 333.80731 -34.226839 
L 332.430634 -34.226839 
L 331.053957 -34.226839 
L 329.677281 -34.226839 
L 328.300604 -34.226839 
L 326.923928 -34.226839 
L 325.547251 -34.226839 
L 324.170575 -34.226839 
L 322.793899 -34.226839 
L 321.417222 -34.226839 
L 320.040546 -34.226839 
L 318.663869 -34.226839 
L 317.287193 -34.226839 
L 315.910516 -34.226839 
L 314.53384 -34.226839 
L 313.157164 -34.226839 
L 311.780487 -34.226839 
L 310.403811 -34.226839 
L 309.027134 -34.226839 
L 307.650458 -34.226839 
L 306.273781 -34.226839 
L 304.897105 -34.226839 
L 303.520429 -34.226839 
L 302.143752 -34.226839 
L 300.767076 -34.226839 
L 299.390399 -34.226839 
L 298.013723 -34.226839 
L 296.637046 -34.226839 
L 295.26037 -34.226839 
L 293.883694 -34.226839 
L 292.507017 -34.226839 
L 291.130341 -34.226839 
L 289.753664 -34.226839 
L 288.376988 -34.226839 
L 287.000312 -34.226839 
L 285.623635 -34.226839 
L 284.246959 -34.226839 
L 282.870282 -34.226839 
L 281.493606 -34.226839 
L 280.116929 -34.226839 
L 278.740253 -34.226839 
L 277.363577 -34.226839 
L 275.9869 -34.226839 
L 274.610224 -34.226839 
L 273.233547 -34.226839 
L 271.856871 -34.226839 
L 270.480194 -34.226839 
L 269.103518 -34.226839 
L 267.726842 -34.226839 
L 266.350165 -34.226839 
L 264.973489 -34.226839 
L 263.596812 -34.226839 
L 262.220136 -34.226839 
L 260.843459 -34.226839 
L 259.466783 -34.226839 
L 258.090107 -34.226839 
L 256.71343 -34.226839 
L 255.336754 -34.226839 
L 253.960077 -34.226839 
L 252.583401 -34.226839 
L 251.206724 -34.226839 
L 249.830048 -34.226839 
L 248.453372 -34.226839 
L 247.076695 -34.226839 
L 245.700019 -34.226839 
L 244.323342 -34.226839 
L 242.946666 -34.226839 
L 241.569989 -34.226839 
L 240.193313 -34.226839 
L 238.816637 -34.226839 
L 237.43996 -34.226839 
L 236.063284 -34.226839 
L 234.686607 -34.226839 
L 233.309931 -34.226839 
L 231.933254 -34.226839 
L 230.556578 -34.226839 
L 229.179902 -34.226839 
L 227.803225 -34.226839 
L 226.426549 -34.226839 
L 225.049872 -34.226839 
L 223.673196 -34.226839 
L 222.296519 -34.226839 
L 220.919843 -34.226839 
L 219.543167 -34.226839 
L 218.16649 -34.226839 
L 216.789814 -34.226839 
L 215.413137 -34.226839 
L 214.036461 -34.226839 
L 212.659785 -34.226839 
L 211.283108 -34.226839 
L 209.906432 -34.226839 
L 208.529755 -34.226839 
L 207.153079 -34.226839 
L 205.776402 -34.226839 
L 204.399726 -34.226839 
L 203.02305 -34.226839 
L 201.646373 -34.226839 
L 200.269697 -34.226839 
L 198.89302 -34.226839 
L 197.516344 -34.226839 
L 196.139667 -34.226839 
L 194.762991 -34.226839 
L 193.386315 -34.226839 
L 192.009638 -34.226839 
L 190.632962 -34.226839 
L 189.256285 -34.226839 
L 187.879609 -34.226839 
L 186.502932 -34.226839 
L 185.126256 -34.226839 
L 183.74958 -34.226839 
L 182.372903 -34.226839 
L 180.996227 -34.226839 
L 179.61955 -34.226839 
L 178.242874 -34.226839 
L 176.866197 -34.226839 
L 175.489521 -34.226839 
L 174.112845 -34.226839 
L 172.736168 -34.226839 
L 171.359492 -34.226839 
L 169.982815 -34.226839 
L 168.606139 -34.226839 
L 167.229462 -34.226839 
L 165.852786 -34.226839 
L 164.47611 -34.226839 
L 163.099433 -34.226839 
L 161.722757 -34.226839 
L 160.34608 -34.226839 
L 158.969404 -34.226839 
L 157.592727 -34.226839 
L 156.216051 -34.226839 
L 154.839375 -34.226839 
L 153.462698 -34.226839 
L 152.086022 -34.226839 
L 150.709345 -34.226839 
L 149.332669 -34.226839 
L 147.955992 -34.226839 
L 146.579316 -34.226839 
L 145.20264 -34.226839 
L 143.825963 -34.226839 
L 142.449287 -34.226839 
L 141.07261 -34.226839 
L 139.695934 -34.226839 
L 138.319258 -34.226839 
L 136.942581 -34.226839 
L 135.565905 -34.226839 
L 134.189228 -34.226839 
L 132.812552 -34.226839 
L 131.435875 -34.226839 
L 130.059199 -34.226839 
L 128.682523 -34.226839 
L 127.305846 -34.226839 
L 125.92917 -34.226839 
L 124.552493 -34.226839 
L 123.175817 -34.226839 
L 121.79914 -34.226839 
L 120.422464 -34.226839 
L 119.045788 -34.226839 
L 117.669111 -34.226839 
L 116.292435 -34.226839 
L 114.915758 -34.226839 
L 113.539082 -34.226839 
L 112.162405 -34.226839 
L 110.785729 -34.226839 
L 109.409053 -34.226839 
L 108.032376 -34.226839 
L 106.6557 -34.226839 
L 105.279023 -34.226839 
L 103.902347 -34.226839 
L 102.52567 -34.226839 
L 101.148994 -34.226839 
L 99.772318 -34.226839 
L 98.395641 -34.226839 
L 97.018965 -34.226839 
L 95.642288 -34.226839 
L 94.265612 -34.226839 
L 92.888935 -34.226839 
L 91.512259 -34.226839 
L 90.135583 -34.226839 
L 88.758906 -34.226839 
L 87.38223 -34.226839 
L 86.005553 -34.226839 
L 84.628877 -34.226839 
L 83.2522 -34.226839 
L 81.875524 -34.226839 
L 80.498848 -34.226839 
L 79.122171 -34.226839 
L 77.745495 -34.226839 
L 76.368818 -34.226839 
L 74.992142 -34.226839 
L 73.615465 -34.226839 
L 72.238789 -34.226839 
L 70.862113 -34.226839 
L 69.485436 -34.226839 
L 68.10876 -34.226839 
L 66.732083 -34.226839 
L 65.355407 -34.226839 
L 63.978731 -34.226839 
L 62.602054 -34.226839 
L 61.225378 -34.226839 
L 59.848701 -34.226839 
L 58.472025 -34.226839 
z
" id="m928cf3b9f1" style="stroke:#000000;stroke-width:0.1;"/>
    </defs>
    <g clip-path="url(#p06dacce4b2)">
     <use style="stroke:#000000;stroke-width:0.1;" x="0" xlink:href="#m928cf3b9f1" y="196.012732"/>
    </g>
   </g>
  </g>
  <g id="axes_5">
   <g id="line2d_1">
    <path clip-path="url(#pa327057011)" d="M 45.354331 160.368571 
L 50.261199 160.368571 
L 50.261199 21.470933 
L 45.354331 21.470933 
" style="fill:none;stroke:#000000;stroke-linecap:square;"/>
   </g>
   <g id="text_2">
    <!-- 0 -->
    <defs>
     <path d="M 31.78125 66.40625 
Q 24.171875 66.40625 20.328125 58.90625 
Q 16.5 51.421875 16.5 36.375 
Q 16.5 21.390625 20.328125 13.890625 
Q 24.171875 6.390625 31.78125 6.390625 
Q 39.453125 6.390625 43.28125 13.890625 
Q 47.125 21.390625 47.125 36.375 
Q 47.125 51.421875 43.28125 58.90625 
Q 39.453125 66.40625 31.78125 66.40625 
z
M 31.78125 74.21875 
Q 44.046875 74.21875 50.515625 64.515625 
Q 56.984375 54.828125 56.984375 36.375 
Q 56.984375 17.96875 50.515625 8.265625 
Q 44.046875 -1.421875 31.78125 -1.421875 
Q 19.53125 -1.421875 13.0625 8.265625 
Q 6.59375 17.96875 6.59375 36.375 
Q 6.59375 54.828125 13.0625 64.515625 
Q 19.53125 74.21875 31.78125 74.21875 
z
" id="DejaVuSans-48"/>
    </defs>
    <g transform="translate(35.756583 160.707592)scale(0.12 -0.12)">
     <use xlink:href="#DejaVuSans-48"/>
    </g>
   </g>
   <g id="text_3">
    <!-- 35 -->
    <defs>
     <path d="M 40.578125 39.3125 
Q 47.65625 37.796875 51.625 33 
Q 55.609375 28.21875 55.609375 21.1875 
Q 55.609375 10.40625 48.1875 4.484375 
Q 40.765625 -1.421875 27.09375 -1.421875 
Q 22.515625 -1.421875 17.65625 -0.515625 
Q 12.796875 0.390625 7.625 2.203125 
L 7.625 11.71875 
Q 11.71875 9.328125 16.59375 8.109375 
Q 21.484375 6.890625 26.8125 6.890625 
Q 36.078125 6.890625 40.9375 10.546875 
Q 45.796875 14.203125 45.796875 21.1875 
Q 45.796875 27.640625 41.28125 31.265625 
Q 36.765625 34.90625 28.71875 34.90625 
L 20.21875 34.90625 
L 20.21875 43.015625 
L 29.109375 43.015625 
Q 36.375 43.015625 40.234375 45.921875 
Q 44.09375 48.828125 44.09375 54.296875 
Q 44.09375 59.90625 40.109375 62.90625 
Q 36.140625 65.921875 28.71875 65.921875 
Q 24.65625 65.921875 20.015625 65.03125 
Q 15.375 64.15625 9.8125 62.3125 
L 9.8125 71.09375 
Q 15.4375 72.65625 20.34375 73.4375 
Q 25.25 74.21875 29.59375 74.21875 
Q 40.828125 74.21875 47.359375 69.109375 
Q 53.90625 64.015625 53.90625 55.328125 
Q 53.90625 49.265625 50.4375 45.09375 
Q 46.96875 40.921875 40.578125 39.3125 
z
" id="DejaVuSans-51"/>
     <path d="M 10.796875 72.90625 
L 49.515625 72.90625 
L 49.515625 64.59375 
L 19.828125 64.59375 
L 19.828125 46.734375 
Q 21.96875 47.46875 24.109375 47.828125 
Q 26.265625 48.1875 28.421875 48.1875 
Q 40.625 48.1875 47.75 41.5 
Q 54.890625 34.8125 54.890625 23.390625 
Q 54.890625 11.625 47.5625 5.09375 
Q 40.234375 -1.421875 26.90625 -1.421875 
Q 22.3125 -1.421875 17.546875 -0.640625 
Q 12.796875 0.140625 7.71875 1.703125 
L 7.71875 11.625 
Q 12.109375 9.234375 16.796875 8.0625 
Q 21.484375 6.890625 26.703125 6.890625 
Q 35.15625 6.890625 40.078125 11.328125 
Q 45.015625 15.765625 45.015625 23.390625 
Q 45.015625 31 40.078125 35.4375 
Q 35.15625 39.890625 26.703125 39.890625 
Q 22.75 39.890625 18.8125 39.015625 
Q 14.890625 38.140625 10.796875 36.28125 
z
" id="DejaVuSans-53"/>
    </defs>
    <g transform="translate(28.121583 29.171735)scale(0.12 -0.12)">
     <use xlink:href="#DejaVuSans-51"/>
     <use x="63.623047" xlink:href="#DejaVuSans-53"/>
    </g>
   </g>
  </g>
  <g id="axes_6">
   <g id="text_4">
    <!-- ATAC E14.5 FDE -->
    <defs>
     <path d="M 34.1875 63.1875 
L 20.796875 26.90625 
L 47.609375 26.90625 
z
M 28.609375 72.90625 
L 39.796875 72.90625 
L 67.578125 0 
L 57.328125 0 
L 50.6875 18.703125 
L 17.828125 18.703125 
L 11.1875 0 
L 0.78125 0 
z
" id="DejaVuSans-65"/>
     <path d="M -0.296875 72.90625 
L 61.375 72.90625 
L 61.375 64.59375 
L 35.5 64.59375 
L 35.5 0 
L 25.59375 0 
L 25.59375 64.59375 
L -0.296875 64.59375 
z
" id="DejaVuSans-84"/>
     <path id="DejaVuSans-32"/>
     <path d="M 12.40625 8.296875 
L 28.515625 8.296875 
L 28.515625 63.921875 
L 10.984375 60.40625 
L 10.984375 69.390625 
L 28.421875 72.90625 
L 38.28125 72.90625 
L 38.28125 8.296875 
L 54.390625 8.296875 
L 54.390625 0 
L 12.40625 0 
z
" id="DejaVuSans-49"/>
     <path d="M 37.796875 64.3125 
L 12.890625 25.390625 
L 37.796875 25.390625 
z
M 35.203125 72.90625 
L 47.609375 72.90625 
L 47.609375 25.390625 
L 58.015625 25.390625 
L 58.015625 17.1875 
L 47.609375 17.1875 
L 47.609375 0 
L 37.796875 0 
L 37.796875 17.1875 
L 4.890625 17.1875 
L 4.890625 26.703125 
z
" id="DejaVuSans-52"/>
     <path d="M 10.6875 12.40625 
L 21 12.40625 
L 21 0 
L 10.6875 0 
z
" id="DejaVuSans-46"/>
     <path d="M 9.8125 72.90625 
L 51.703125 72.90625 
L 51.703125 64.59375 
L 19.671875 64.59375 
L 19.671875 43.109375 
L 48.578125 43.109375 
L 48.578125 34.8125 
L 19.671875 34.8125 
L 19.671875 0 
L 9.8125 0 
z
" id="DejaVuSans-70"/>
     <path d="M 19.671875 64.796875 
L 19.671875 8.109375 
L 31.59375 8.109375 
Q 46.6875 8.109375 53.6875 14.9375 
Q 60.6875 21.78125 60.6875 36.53125 
Q 60.6875 51.171875 53.6875 57.984375 
Q 46.6875 64.796875 31.59375 64.796875 
z
M 9.8125 72.90625 
L 30.078125 72.90625 
Q 51.265625 72.90625 61.171875 64.09375 
Q 71.09375 55.28125 71.09375 36.53125 
Q 71.09375 17.671875 61.125 8.828125 
Q 51.171875 0 30.078125 0 
L 9.8125 0 
z
" id="DejaVuSans-68"/>
    </defs>
    <g transform="translate(763.458124 94.893252)scale(0.144 -0.144)">
     <use xlink:href="#DejaVuSans-65"/>
     <use x="68.298828" xlink:href="#DejaVuSans-84"/>
     <use x="129.273438" xlink:href="#DejaVuSans-65"/>
     <use x="197.666016" xlink:href="#DejaVuSans-67"/>
     <use x="267.490234" xlink:href="#DejaVuSans-32"/>
     <use x="299.277344" xlink:href="#DejaVuSans-69"/>
     <use x="362.460938" xlink:href="#DejaVuSans-49"/>
     <use x="426.083984" xlink:href="#DejaVuSans-52"/>
     <use x="489.707031" xlink:href="#DejaVuSans-46"/>
     <use x="521.494141" xlink:href="#DejaVuSans-53"/>
     <use x="585.117188" xlink:href="#DejaVuSans-32"/>
     <use x="616.904297" xlink:href="#DejaVuSans-70"/>
     <use x="674.423828" xlink:href="#DejaVuSans-68"/>
     <use x="751.425781" xlink:href="#DejaVuSans-69"/>
    </g>
   </g>
  </g>
  <g id="axes_7">
   <g id="line2d_2">
    <path clip-path="url(#pb4ec33d8b0)" style="fill:none;stroke:#000000;stroke-linecap:square;stroke-width:3;"/>
   </g>
   <g id="line2d_3">
    <path clip-path="url(#pb4ec33d8b0)" style="fill:none;stroke:#000000;stroke-linecap:square;stroke-width:3;"/>
   </g>
   <g id="line2d_4">
    <path clip-path="url(#pb4ec33d8b0)" style="fill:none;stroke:#000000;stroke-linecap:square;stroke-width:3;"/>
   </g>
   <g id="text_5">
    <!-- 1 kb -->
    <defs>
     <path d="M 9.078125 75.984375 
L 18.109375 75.984375 
L 18.109375 31.109375 
L 44.921875 54.6875 
L 56.390625 54.6875 
L 27.390625 29.109375 
L 57.625 0 
L 45.90625 0 
L 18.109375 26.703125 
L 18.109375 0 
L 9.078125 0 
z
" id="DejaVuSans-107"/>
     <path d="M 48.6875 27.296875 
Q 48.6875 37.203125 44.609375 42.84375 
Q 40.53125 48.484375 33.40625 48.484375 
Q 26.265625 48.484375 22.1875 42.84375 
Q 18.109375 37.203125 18.109375 27.296875 
Q 18.109375 17.390625 22.1875 11.75 
Q 26.265625 6.109375 33.40625 6.109375 
Q 40.53125 6.109375 44.609375 11.75 
Q 48.6875 17.390625 48.6875 27.296875 
z
M 18.109375 46.390625 
Q 20.953125 51.265625 25.265625 53.625 
Q 29.59375 56 35.59375 56 
Q 45.5625 56 51.78125 48.09375 
Q 58.015625 40.1875 58.015625 27.296875 
Q 58.015625 14.40625 51.78125 6.484375 
Q 45.5625 -1.421875 35.59375 -1.421875 
Q 29.59375 -1.421875 25.265625 0.953125 
Q 20.953125 3.328125 18.109375 8.203125 
L 18.109375 0 
L 9.078125 0 
L 9.078125 75.984375 
L 18.109375 75.984375 
z
" id="DejaVuSans-98"/>
    </defs>
    <g transform="translate(-9288.179431 172.183758)scale(0.12 -0.12)">
     <use xlink:href="#DejaVuSans-49"/>
     <use x="63.623047" xlink:href="#DejaVuSans-32"/>
     <use x="95.410156" xlink:href="#DejaVuSans-107"/>
     <use x="153.320312" xlink:href="#DejaVuSans-98"/>
    </g>
   </g>
  </g>
  <g id="axes_8"/>
  <g id="axes_9"/>
  <g id="axes_10">
   <g id="line2d_5">
    <path clip-path="url(#p2dac328481)" d="M 109.362397 190.13235 
L 109.362397 175.959122 
" style="fill:none;stroke:#000000;stroke-linecap:square;stroke-width:3;"/>
   </g>
   <g id="line2d_6">
    <path clip-path="url(#p2dac328481)" d="M 109.362397 183.045736 
L 694.30921 183.045736 
" style="fill:none;stroke:#000000;stroke-linecap:square;stroke-width:3;"/>
   </g>
   <g id="line2d_7">
    <path clip-path="url(#p2dac328481)" d="M 694.30921 190.13235 
L 694.30921 175.959122 
" style="fill:none;stroke:#000000;stroke-linecap:square;stroke-width:3;"/>
   </g>
   <g id="text_6">
    <!-- 5 kb -->
    <g transform="translate(708.795572 186.356986)scale(0.12 -0.12)">
     <use xlink:href="#DejaVuSans-53"/>
     <use x="63.623047" xlink:href="#DejaVuSans-32"/>
     <use x="95.410156" xlink:href="#DejaVuSans-107"/>
     <use x="153.320312" xlink:href="#DejaVuSans-98"/>
    </g>
   </g>
  </g>
  <g id="axes_11"/>
  <g id="axes_12"/>
 </g>
 <defs>
  <clipPath id="pc658a4e0f0">
   <rect height="14.173228" width="686.961537" x="58.472025" y="5.880382"/>
  </clipPath>
  <clipPath id="p06dacce4b2">
   <rect height="141.732283" width="686.961537" x="58.472025" y="20.05361"/>
  </clipPath>
  <clipPath id="pa327057011">
   <rect height="141.732283" width="9.813736" x="45.354331" y="20.05361"/>
  </clipPath>
  <clipPath id="pb4ec33d8b0">
   <rect height="14.173228" width="686.961537" x="58.472025" y="161.785894"/>
  </clipPath>
  <clipPath id="p2dac328481">
   <rect height="14.173228" width="686.961537" x="58.472025" y="175.959122"/>
  </clipPath>
 </defs>
</svg>
