<?xml version="1.0" encoding="utf-8" standalone="no"?>
<!DOCTYPE svg PUBLIC "-//W3C//DTD SVG 1.1//EN"
  "http://www.w3.org/Graphics/SVG/1.1/DTD/svg11.dtd">
<!-- Created with matplotlib (https://matplotlib.org/) -->
<svg height="196.012732pt" version="1.1" viewBox="0 0 1133.858268 196.012732" width="1133.858268pt" xmlns="http://www.w3.org/2000/svg" xmlns:xlink="http://www.w3.org/1999/xlink">
 <defs>
  <style type="text/css">
*{stroke-linecap:butt;stroke-linejoin:round;}
  </style>
 </defs>
 <g id="figure_1">
  <g id="patch_1">
   <path d="M 0 196.012732 
L 1133.858268 196.012732 
L 1133.858268 0 
L 0 0 
z
" style="fill:#ffffff;"/>
  </g>
  <g id="axes_1">
   <g id="patch_2">
    <path clip-path="url(#p1b602e08bd)" d="M 172.896767 6.857846 
L 631.00882 6.857846 
L 631.00882 19.076146 
L 172.896767 19.076146 
z
" style="fill:none;stroke:#04d404;stroke-linejoin:miter;stroke-width:3;"/>
   </g>
   <g id="text_1">
    <!-- EC1 -->
    <defs>
     <path d="M 9.8125 72.90625 
L 55.90625 72.90625 
L 55.90625 64.59375 
L 19.671875 64.59375 
L 19.671875 43.015625 
L 54.390625 43.015625 
L 54.390625 34.71875 
L 19.671875 34.71875 
L 19.671875 8.296875 
L 56.78125 8.296875 
L 56.78125 0 
L 9.8125 0 
z
" id="DejaVuSans-69"/>
     <path d="M 64.40625 67.28125 
L 64.40625 56.890625 
Q 59.421875 61.53125 53.78125 63.8125 
Q 48.140625 66.109375 41.796875 66.109375 
Q 29.296875 66.109375 22.65625 58.46875 
Q 16.015625 50.828125 16.015625 36.375 
Q 16.015625 21.96875 22.65625 14.328125 
Q 29.296875 6.6875 41.796875 6.6875 
Q 48.140625 6.6875 53.78125 8.984375 
Q 59.421875 11.28125 64.40625 15.921875 
L 64.40625 5.609375 
Q 59.234375 2.09375 53.4375 0.328125 
Q 47.65625 -1.421875 41.21875 -1.421875 
Q 24.65625 -1.421875 15.125 8.703125 
Q 5.609375 18.84375 5.609375 36.375 
Q 5.609375 53.953125 15.125 64.078125 
Q 24.65625 74.21875 41.21875 74.21875 
Q 47.75 74.21875 53.53125 72.484375 
Q 59.328125 70.75 64.40625 67.28125 
z
" id="DejaVuSans-67"/>
     <path d="M 12.40625 8.296875 
L 28.515625 8.296875 
L 28.515625 63.921875 
L 10.984375 60.40625 
L 10.984375 69.390625 
L 28.421875 72.90625 
L 38.28125 72.90625 
L 38.28125 8.296875 
L 54.390625 8.296875 
L 54.390625 0 
L 12.40625 0 
z
" id="DejaVuSans-49"/>
    </defs>
    <g transform="translate(633.756666 16.278246)scale(0.12 -0.12)">
     <use xlink:href="#DejaVuSans-69"/>
     <use x="63.183594" xlink:href="#DejaVuSans-67"/>
     <use x="133.007812" xlink:href="#DejaVuSans-49"/>
    </g>
   </g>
  </g>
  <g id="axes_2"/>
  <g id="axes_3"/>
  <g id="axes_4">
   <g id="PolyCollection_1">
    <defs>
     <path d="M 58.472025 -34.226839 
L 58.472025 -41.771208 
L 59.848701 -42.148377 
L 61.225378 -42.148377 
L 62.602054 -41.771086 
L 63.978731 -41.771086 
L 65.355407 -41.771086 
L 66.732083 -41.771086 
L 68.10876 -41.771086 
L 69.485436 -41.771086 
L 70.862113 -41.393916 
L 72.238789 -41.016747 
L 73.615465 -41.016747 
L 74.992142 -41.016747 
L 76.368818 -40.639496 
L 77.745495 -40.639496 
L 79.122171 -40.262326 
L 80.498848 -40.262326 
L 81.875524 -40.262326 
L 83.2522 -40.262326 
L 84.628877 -40.262326 
L 86.005553 -40.262326 
L 87.38223 -40.262326 
L 88.758906 -40.262326 
L 90.135583 -40.262326 
L 91.512259 -39.885156 
L 92.888935 -39.885156 
L 94.265612 -39.885156 
L 95.642288 -39.508027 
L 97.018965 -39.130857 
L 98.395641 -37.999088 
L 99.772318 -37.999088 
L 101.148994 -37.999088 
L 102.52567 -37.999088 
L 103.902347 -37.999088 
L 105.279023 -37.999088 
L 106.6557 -37.621801 
L 108.032376 -37.621801 
L 109.409053 -37.621679 
L 110.785729 -37.621679 
L 112.162405 -37.621679 
L 113.539082 -37.621679 
L 114.915758 -36.867351 
L 116.292435 -37.244513 
L 117.669111 -37.244513 
L 119.045788 -37.244513 
L 120.422464 -37.621801 
L 121.79914 -37.621801 
L 123.175817 -37.621801 
L 124.552493 -36.867351 
L 125.92917 -36.867351 
L 127.305846 -36.867226 
L 128.682523 -36.867226 
L 130.059199 -36.867226 
L 131.435875 -36.489939 
L 132.812552 -36.489939 
L 134.189228 -36.489939 
L 135.565905 -36.867105 
L 136.942581 -36.867105 
L 138.319258 -37.244274 
L 139.695934 -37.244274 
L 141.07261 -37.621424 
L 142.449287 -37.621424 
L 143.825963 -37.244274 
L 145.20264 -37.244274 
L 146.579316 -37.244274 
L 147.955992 -37.244274 
L 149.332669 -37.244274 
L 150.709345 -37.244274 
L 152.086022 -37.244274 
L 153.462698 -37.244274 
L 154.839375 -37.621424 
L 156.216051 -37.621424 
L 157.592727 -37.621424 
L 158.969404 -37.621424 
L 160.34608 -37.621424 
L 161.722757 -38.375747 
L 163.099433 -38.375747 
L 164.47611 -38.375747 
L 165.852786 -38.375747 
L 167.229462 -38.375747 
L 168.606139 -38.375747 
L 169.982815 -38.752917 
L 171.359492 -38.752917 
L 172.736168 -38.752917 
L 174.112845 -39.130087 
L 175.489521 -39.130087 
L 176.866197 -39.130087 
L 178.242874 -39.130087 
L 179.61955 -39.130087 
L 180.996227 -39.884386 
L 182.372903 -39.884386 
L 183.74958 -39.884386 
L 185.126256 -39.884386 
L 186.502932 -39.884386 
L 187.879609 -40.638726 
L 189.256285 -41.7706 
L 190.632962 -41.7706 
L 192.009638 -42.148013 
L 193.386315 -42.148013 
L 194.762991 -42.148013 
L 196.139667 -42.525143 
L 197.516344 -42.525143 
L 198.89302 -42.148013 
L 200.269697 -42.148013 
L 201.646373 -42.902474 
L 203.02305 -43.656814 
L 204.399726 -44.033943 
L 205.776402 -45.165534 
L 207.153079 -45.165534 
L 208.529755 -45.542825 
L 209.906432 -45.542825 
L 211.283108 -45.165656 
L 212.659785 -45.165656 
L 214.036461 -46.297165 
L 215.413137 -46.674294 
L 216.789814 -46.674294 
L 218.16649 -47.806087 
L 219.543167 -47.806087 
L 220.919843 -47.806087 
L 222.29652 -48.560508 
L 223.673196 -49.315091 
L 225.049872 -48.938042 
L 226.426549 -49.692503 
L 227.803225 -49.692503 
L 229.179902 -50.824094 
L 230.556578 -51.201264 
L 231.933254 -51.201264 
L 233.309931 -51.201264 
L 234.686607 -51.955562 
L 236.063284 -52.710065 
L 237.43996 -52.710065 
L 238.816637 -53.087236 
L 240.193313 -53.087236 
L 241.569989 -53.464485 
L 242.946666 -54.218947 
L 244.323342 -54.218947 
L 245.700019 -54.219108 
L 247.076695 -54.219108 
L 248.453372 -54.973408 
L 249.830048 -54.973408 
L 251.206724 -55.350578 
L 252.583401 -55.350578 
L 253.960077 -55.350578 
L 255.336754 -55.350578 
L 256.71343 -55.350659 
L 258.090107 -55.727828 
L 259.466783 -56.104998 
L 260.843459 -57.236751 
L 262.220136 -57.613921 
L 263.596812 -57.613921 
L 264.973489 -57.613921 
L 266.350165 -57.613921 
L 267.726842 -58.368462 
L 269.103518 -58.368462 
L 270.480194 -57.991294 
L 271.856871 -57.236872 
L 273.233547 -57.236872 
L 274.610224 -56.85958 
L 275.9869 -57.236751 
L 277.363577 -57.236751 
L 278.740253 -57.991051 
L 280.116929 -58.368381 
L 281.493606 -58.368381 
L 282.870282 -58.745633 
L 284.246959 -58.368462 
L 285.623635 -57.991213 
L 287.000312 -56.859702 
L 288.376988 -56.482533 
L 289.753664 -56.482412 
L 291.130341 -56.482412 
L 292.507017 -56.10516 
L 293.883694 -56.482412 
L 295.26037 -56.859702 
L 296.637047 -55.728233 
L 298.013723 -55.728355 
L 299.390399 -55.728355 
L 300.767076 -55.728355 
L 302.143752 -54.219473 
L 303.520429 -54.596765 
L 304.897105 -54.596765 
L 306.273781 -53.842302 
L 307.650458 -53.087599 
L 309.027134 -52.710308 
L 310.403811 -52.333138 
L 311.780487 -52.710308 
L 313.157164 -51.955846 
L 314.53384 -51.578676 
L 315.910516 -51.578676 
L 317.287193 -51.578676 
L 318.663869 -50.824377 
L 320.040546 -50.824377 
L 321.417222 -50.824377 
L 322.793899 -50.447207 
L 324.170575 -50.447207 
L 325.547251 -50.824377 
L 326.923928 -50.069876 
L 328.300604 -49.692747 
L 329.677281 -49.315455 
L 331.053957 -49.692625 
L 332.430634 -48.938285 
L 333.80731 -48.938447 
L 335.183986 -48.938447 
L 336.560663 -48.938569 
L 337.937339 -49.31582 
L 339.314016 -49.31582 
L 340.690692 -49.315739 
L 342.067369 -49.315739 
L 343.444045 -49.315739 
L 344.820721 -49.692625 
L 346.197398 -49.692747 
L 347.574074 -49.315576 
L 348.950751 -48.938447 
L 350.327427 -48.938447 
L 351.704104 -48.561115 
L 353.08078 -48.561115 
L 354.457456 -49.692868 
L 355.834133 -49.315576 
L 357.210809 -50.070159 
L 358.587486 -50.070159 
L 359.964162 -49.692868 
L 361.340839 -50.447207 
L 362.717515 -50.070038 
L 364.094191 -50.070038 
L 365.470868 -50.070038 
L 366.847544 -50.447045 
L 368.224221 -50.447045 
L 369.600897 -50.824377 
L 370.977573 -50.447045 
L 372.35425 -51.201548 
L 373.730926 -51.201548 
L 375.107603 -52.333138 
L 376.484279 -52.71043 
L 377.860956 -52.71043 
L 379.237632 -53.087436 
L 380.614308 -53.087436 
L 381.990985 -53.087436 
L 383.367661 -53.464607 
L 384.744338 -53.841939 
L 386.121014 -53.841939 
L 387.497691 -53.841777 
L 388.874367 -53.464607 
L 390.251043 -53.841939 
L 391.62772 -53.464769 
L 393.004396 -53.84202 
L 394.381073 -53.84202 
L 395.757749 -54.219473 
L 397.134426 -54.596602 
L 398.511102 -54.973894 
L 399.887778 -55.351185 
L 401.264455 -56.105606 
L 402.641131 -55.728436 
L 404.017808 -55.728355 
L 405.394484 -55.351185 
L 406.771161 -55.728436 
L 408.147837 -55.728436 
L 409.524513 -55.351185 
L 410.90119 -55.351185 
L 412.277866 -55.351185 
L 413.654543 -54.974016 
L 415.031219 -54.974016 
L 416.407896 -54.974016 
L 417.784572 -54.974016 
L 419.161248 -54.974016 
L 420.537925 -54.596765 
L 421.914601 -54.596602 
L 423.291278 -55.728071 
L 424.667954 -56.105363 
L 426.044631 -56.482655 
L 427.421307 -55.351185 
L 428.797983 -55.728436 
L 430.17466 -55.728355 
L 431.551336 -56.105525 
L 432.928013 -56.105525 
L 434.304689 -56.105525 
L 435.681366 -55.728233 
L 437.058042 -55.728233 
L 438.434718 -55.351063 
L 439.811395 -55.351063 
L 441.188071 -55.350941 
L 442.564748 -56.105363 
L 443.941424 -56.859824 
L 445.3181 -58.745917 
L 446.694777 -59.500215 
L 448.071453 -59.877385 
L 449.44813 -60.631967 
L 450.824806 -61.386308 
L 452.201483 -61.386186 
L 453.578159 -61.763316 
L 454.954835 -61.763316 
L 456.331512 -60.254556 
L 457.708188 -60.631726 
L 459.084865 -59.877223 
L 460.461541 -60.254312 
L 461.838218 -60.631564 
L 463.214894 -61.385903 
L 464.59157 -62.894785 
L 465.968247 -63.271955 
L 467.344923 -62.894785 
L 468.7216 -63.271955 
L 470.098276 -62.894785 
L 471.474953 -62.894785 
L 472.851629 -64.026294 
L 474.228305 -64.026294 
L 475.604982 -65.157925 
L 476.981658 -65.157925 
L 478.358335 -65.912184 
L 479.735011 -67.043976 
L 481.111688 -68.552576 
L 482.488364 -69.307079 
L 483.86504 -70.816162 
L 485.241717 -71.193454 
L 486.618393 -71.57046 
L 487.99507 -72.702174 
L 489.371746 -73.456673 
L 490.748423 -73.833683 
L 492.125099 -74.210933 
L 493.501775 -74.210933 
L 494.878452 -74.588225 
L 496.255128 -75.342971 
L 497.631805 -76.851811 
L 499.008481 -77.228817 
L 500.385158 -77.606232 
L 501.761834 -78.36065 
L 503.13851 -79.492484 
L 504.515187 -80.246906 
L 505.891863 -81.378334 
L 507.26854 -81.378334 
L 508.645216 -81.378334 
L 510.021893 -81.755344 
L 511.398569 -81.000922 
L 512.775245 -81.378334 
L 514.151922 -81.001328 
L 515.528598 -80.623916 
L 516.905275 -81.001328 
L 518.281951 -81.378334 
L 519.658627 -82.887583 
L 521.035304 -82.510167 
L 522.41198 -83.264589 
L 523.788657 -82.510167 
L 525.165333 -82.510167 
L 526.54201 -81.755749 
L 527.918686 -79.869494 
L 529.295362 -78.738066 
L 530.672039 -77.229628 
L 532.048715 -76.474804 
L 533.425392 -77.606638 
L 534.802068 -76.475206 
L 536.178745 -76.852216 
L 537.555421 -77.229628 
L 538.932097 -77.229628 
L 540.308774 -76.852216 
L 541.68545 -77.98405 
L 543.062127 -77.98405 
L 544.438803 -76.852622 
L 545.81548 -75.721194 
L 547.192156 -75.343778 
L 548.568832 -73.457847 
L 549.945509 -73.835139 
L 551.322185 -73.835139 
L 552.698862 -73.08064 
L 554.075538 -73.08064 
L 555.452215 -73.08064 
L 556.828891 -72.703672 
L 558.205567 -72.703672 
L 559.582244 -71.949088 
L 560.95892 -72.326257 
L 562.335597 -70.440167 
L 563.712273 -69.685703 
L 565.08895 -67.799815 
L 566.465626 -67.422604 
L 567.842302 -64.78189 
L 569.218979 -64.027427 
L 570.595655 -62.895797 
L 571.972332 -62.518626 
L 573.349008 -62.89604 
L 574.725685 -62.51887 
L 576.102361 -61.76445 
L 577.479037 -61.76445 
L 578.855714 -61.387158 
L 580.23239 -59.878235 
L 581.609067 -59.123653 
L 582.985743 -58.369233 
L 584.36242 -58.369233 
L 585.739096 -57.237762 
L 587.115772 -54.97442 
L 588.492449 -54.597251 
L 589.869125 -52.711158 
L 591.245802 -51.95686 
L 592.622478 -51.95686 
L 593.999154 -51.202519 
L 595.375831 -51.202519 
L 596.752507 -51.202519 
L 598.129184 -51.202519 
L 599.50586 -51.202519 
L 600.882537 -50.44818 
L 602.259213 -50.44818 
L 603.635889 -48.939176 
L 605.012566 -48.561884 
L 606.389242 -47.807424 
L 607.765919 -47.053003 
L 609.142595 -47.053003 
L 610.519272 -46.675833 
L 611.895948 -46.675833 
L 613.272624 -46.298542 
L 614.649301 -45.921251 
L 616.025977 -45.921251 
L 617.402654 -44.789619 
L 618.77933 -44.035279 
L 620.156007 -43.657988 
L 621.532683 -42.903608 
L 622.909359 -42.903608 
L 624.286036 -43.280859 
L 625.662712 -41.771855 
L 627.039389 -42.149106 
L 628.416065 -42.149106 
L 629.792742 -41.771855 
L 631.169418 -41.771855 
L 632.546094 -41.771855 
L 633.922771 -41.771694 
L 635.299447 -41.771694 
L 636.676124 -41.771694 
L 638.0528 -41.771694 
L 639.429477 -41.017273 
L 640.806153 -40.639982 
L 642.182829 -40.262812 
L 643.559506 -40.262812 
L 644.936182 -39.88552 
L 646.312859 -39.50835 
L 647.689535 -39.50835 
L 649.066212 -39.885642 
L 650.442888 -39.885642 
L 651.819564 -40.262812 
L 653.196241 -40.262812 
L 654.572917 -40.262812 
L 655.949594 -39.130938 
L 657.32627 -39.130938 
L 658.702947 -39.130938 
L 660.079623 -39.130938 
L 661.456299 -39.130938 
L 662.832976 -39.130938 
L 664.209652 -39.130938 
L 665.586329 -39.130938 
L 666.963005 -39.130938 
L 668.339681 -39.130938 
L 669.716358 -39.130938 
L 671.093034 -39.508229 
L 672.469711 -39.508229 
L 673.846387 -39.885399 
L 675.223064 -39.130857 
L 676.59974 -39.130857 
L 677.976416 -39.130857 
L 679.353093 -38.753525 
L 680.729769 -38.753525 
L 682.106446 -38.753525 
L 683.483122 -38.753525 
L 684.859799 -38.753525 
L 686.236475 -38.753525 
L 687.613151 -38.753525 
L 688.989828 -38.753525 
L 690.366504 -38.753525 
L 691.743181 -38.753525 
L 693.119857 -39.130857 
L 694.496534 -39.130857 
L 695.87321 -39.130857 
L 697.249886 -39.130857 
L 698.626563 -39.130857 
L 700.003239 -39.130857 
L 701.379916 -39.130857 
L 702.756592 -39.130857 
L 704.133269 -39.508027 
L 705.509945 -39.508027 
L 706.886621 -39.130695 
L 708.263298 -39.130695 
L 709.639974 -39.130857 
L 711.016651 -38.753525 
L 712.393327 -38.753525 
L 713.770004 -39.130857 
L 715.14668 -39.130857 
L 716.523356 -39.130857 
L 717.900033 -38.753687 
L 719.276709 -38.753687 
L 720.653386 -38.753687 
L 722.030062 -38.753687 
L 723.406739 -38.753687 
L 724.783415 -38.753687 
L 726.160091 -39.130938 
L 727.536768 -38.753768 
L 728.913444 -39.131059 
L 730.290121 -39.131059 
L 731.666797 -38.753768 
L 733.043474 -38.753768 
L 734.42015 -38.753768 
L 735.796826 -38.376598 
L 737.173503 -38.753768 
L 738.550179 -38.753768 
L 739.926856 -38.753768 
L 741.303532 -38.376517 
L 742.680208 -38.376517 
L 744.056885 -38.376517 
L 745.433561 -38.376517 
L 745.433561 -34.226839 
L 745.433561 -34.226839 
L 744.056885 -34.226839 
L 742.680208 -34.226839 
L 741.303532 -34.226839 
L 739.926856 -34.226839 
L 738.550179 -34.226839 
L 737.173503 -34.226839 
L 735.796826 -34.226839 
L 734.42015 -34.226839 
L 733.043474 -34.226839 
L 731.666797 -34.226839 
L 730.290121 -34.226839 
L 728.913444 -34.226839 
L 727.536768 -34.226839 
L 726.160091 -34.226839 
L 724.783415 -34.226839 
L 723.406739 -34.226839 
L 722.030062 -34.226839 
L 720.653386 -34.226839 
L 719.276709 -34.226839 
L 717.900033 -34.226839 
L 716.523356 -34.226839 
L 715.14668 -34.226839 
L 713.770004 -34.226839 
L 712.393327 -34.226839 
L 711.016651 -34.226839 
L 709.639974 -34.226839 
L 708.263298 -34.226839 
L 706.886621 -34.226839 
L 705.509945 -34.226839 
L 704.133269 -34.226839 
L 702.756592 -34.226839 
L 701.379916 -34.226839 
L 700.003239 -34.226839 
L 698.626563 -34.226839 
L 697.249886 -34.226839 
L 695.87321 -34.226839 
L 694.496534 -34.226839 
L 693.119857 -34.226839 
L 691.743181 -34.226839 
L 690.366504 -34.226839 
L 688.989828 -34.226839 
L 687.613151 -34.226839 
L 686.236475 -34.226839 
L 684.859799 -34.226839 
L 683.483122 -34.226839 
L 682.106446 -34.226839 
L 680.729769 -34.226839 
L 679.353093 -34.226839 
L 677.976416 -34.226839 
L 676.59974 -34.226839 
L 675.223064 -34.226839 
L 673.846387 -34.226839 
L 672.469711 -34.226839 
L 671.093034 -34.226839 
L 669.716358 -34.226839 
L 668.339681 -34.226839 
L 666.963005 -34.226839 
L 665.586329 -34.226839 
L 664.209652 -34.226839 
L 662.832976 -34.226839 
L 661.456299 -34.226839 
L 660.079623 -34.226839 
L 658.702947 -34.226839 
L 657.32627 -34.226839 
L 655.949594 -34.226839 
L 654.572917 -34.226839 
L 653.196241 -34.226839 
L 651.819564 -34.226839 
L 650.442888 -34.226839 
L 649.066212 -34.226839 
L 647.689535 -34.226839 
L 646.312859 -34.226839 
L 644.936182 -34.226839 
L 643.559506 -34.226839 
L 642.182829 -34.226839 
L 640.806153 -34.226839 
L 639.429477 -34.226839 
L 638.0528 -34.226839 
L 636.676124 -34.226839 
L 635.299447 -34.226839 
L 633.922771 -34.226839 
L 632.546094 -34.226839 
L 631.169418 -34.226839 
L 629.792742 -34.226839 
L 628.416065 -34.226839 
L 627.039389 -34.226839 
L 625.662712 -34.226839 
L 624.286036 -34.226839 
L 622.909359 -34.226839 
L 621.532683 -34.226839 
L 620.156007 -34.226839 
L 618.77933 -34.226839 
L 617.402654 -34.226839 
L 616.025977 -34.226839 
L 614.649301 -34.226839 
L 613.272624 -34.226839 
L 611.895948 -34.226839 
L 610.519272 -34.226839 
L 609.142595 -34.226839 
L 607.765919 -34.226839 
L 606.389242 -34.226839 
L 605.012566 -34.226839 
L 603.635889 -34.226839 
L 602.259213 -34.226839 
L 600.882537 -34.226839 
L 599.50586 -34.226839 
L 598.129184 -34.226839 
L 596.752507 -34.226839 
L 595.375831 -34.226839 
L 593.999154 -34.226839 
L 592.622478 -34.226839 
L 591.245802 -34.226839 
L 589.869125 -34.226839 
L 588.492449 -34.226839 
L 587.115772 -34.226839 
L 585.739096 -34.226839 
L 584.36242 -34.226839 
L 582.985743 -34.226839 
L 581.609067 -34.226839 
L 580.23239 -34.226839 
L 578.855714 -34.226839 
L 577.479037 -34.226839 
L 576.102361 -34.226839 
L 574.725685 -34.226839 
L 573.349008 -34.226839 
L 571.972332 -34.226839 
L 570.595655 -34.226839 
L 569.218979 -34.226839 
L 567.842302 -34.226839 
L 566.465626 -34.226839 
L 565.08895 -34.226839 
L 563.712273 -34.226839 
L 562.335597 -34.226839 
L 560.95892 -34.226839 
L 559.582244 -34.226839 
L 558.205567 -34.226839 
L 556.828891 -34.226839 
L 555.452215 -34.226839 
L 554.075538 -34.226839 
L 552.698862 -34.226839 
L 551.322185 -34.226839 
L 549.945509 -34.226839 
L 548.568832 -34.226839 
L 547.192156 -34.226839 
L 545.81548 -34.226839 
L 544.438803 -34.226839 
L 543.062127 -34.226839 
L 541.68545 -34.226839 
L 540.308774 -34.226839 
L 538.932097 -34.226839 
L 537.555421 -34.226839 
L 536.178745 -34.226839 
L 534.802068 -34.226839 
L 533.425392 -34.226839 
L 532.048715 -34.226839 
L 530.672039 -34.226839 
L 529.295362 -34.226839 
L 527.918686 -34.226839 
L 526.54201 -34.226839 
L 525.165333 -34.226839 
L 523.788657 -34.226839 
L 522.41198 -34.226839 
L 521.035304 -34.226839 
L 519.658627 -34.226839 
L 518.281951 -34.226839 
L 516.905275 -34.226839 
L 515.528598 -34.226839 
L 514.151922 -34.226839 
L 512.775245 -34.226839 
L 511.398569 -34.226839 
L 510.021893 -34.226839 
L 508.645216 -34.226839 
L 507.26854 -34.226839 
L 505.891863 -34.226839 
L 504.515187 -34.226839 
L 503.13851 -34.226839 
L 501.761834 -34.226839 
L 500.385158 -34.226839 
L 499.008481 -34.226839 
L 497.631805 -34.226839 
L 496.255128 -34.226839 
L 494.878452 -34.226839 
L 493.501775 -34.226839 
L 492.125099 -34.226839 
L 490.748423 -34.226839 
L 489.371746 -34.226839 
L 487.99507 -34.226839 
L 486.618393 -34.226839 
L 485.241717 -34.226839 
L 483.86504 -34.226839 
L 482.488364 -34.226839 
L 481.111688 -34.226839 
L 479.735011 -34.226839 
L 478.358335 -34.226839 
L 476.981658 -34.226839 
L 475.604982 -34.226839 
L 474.228305 -34.226839 
L 472.851629 -34.226839 
L 471.474953 -34.226839 
L 470.098276 -34.226839 
L 468.7216 -34.226839 
L 467.344923 -34.226839 
L 465.968247 -34.226839 
L 464.59157 -34.226839 
L 463.214894 -34.226839 
L 461.838218 -34.226839 
L 460.461541 -34.226839 
L 459.084865 -34.226839 
L 457.708188 -34.226839 
L 456.331512 -34.226839 
L 454.954835 -34.226839 
L 453.578159 -34.226839 
L 452.201483 -34.226839 
L 450.824806 -34.226839 
L 449.44813 -34.226839 
L 448.071453 -34.226839 
L 446.694777 -34.226839 
L 445.3181 -34.226839 
L 443.941424 -34.226839 
L 442.564748 -34.226839 
L 441.188071 -34.226839 
L 439.811395 -34.226839 
L 438.434718 -34.226839 
L 437.058042 -34.226839 
L 435.681366 -34.226839 
L 434.304689 -34.226839 
L 432.928013 -34.226839 
L 431.551336 -34.226839 
L 430.17466 -34.226839 
L 428.797983 -34.226839 
L 427.421307 -34.226839 
L 426.044631 -34.226839 
L 424.667954 -34.226839 
L 423.291278 -34.226839 
L 421.914601 -34.226839 
L 420.537925 -34.226839 
L 419.161248 -34.226839 
L 417.784572 -34.226839 
L 416.407896 -34.226839 
L 415.031219 -34.226839 
L 413.654543 -34.226839 
L 412.277866 -34.226839 
L 410.90119 -34.226839 
L 409.524513 -34.226839 
L 408.147837 -34.226839 
L 406.771161 -34.226839 
L 405.394484 -34.226839 
L 404.017808 -34.226839 
L 402.641131 -34.226839 
L 401.264455 -34.226839 
L 399.887778 -34.226839 
L 398.511102 -34.226839 
L 397.134426 -34.226839 
L 395.757749 -34.226839 
L 394.381073 -34.226839 
L 393.004396 -34.226839 
L 391.62772 -34.226839 
L 390.251043 -34.226839 
L 388.874367 -34.226839 
L 387.497691 -34.226839 
L 386.121014 -34.226839 
L 384.744338 -34.226839 
L 383.367661 -34.226839 
L 381.990985 -34.226839 
L 380.614308 -34.226839 
L 379.237632 -34.226839 
L 377.860956 -34.226839 
L 376.484279 -34.226839 
L 375.107603 -34.226839 
L 373.730926 -34.226839 
L 372.35425 -34.226839 
L 370.977573 -34.226839 
L 369.600897 -34.226839 
L 368.224221 -34.226839 
L 366.847544 -34.226839 
L 365.470868 -34.226839 
L 364.094191 -34.226839 
L 362.717515 -34.226839 
L 361.340839 -34.226839 
L 359.964162 -34.226839 
L 358.587486 -34.226839 
L 357.210809 -34.226839 
L 355.834133 -34.226839 
L 354.457456 -34.226839 
L 353.08078 -34.226839 
L 351.704104 -34.226839 
L 350.327427 -34.226839 
L 348.950751 -34.226839 
L 347.574074 -34.226839 
L 346.197398 -34.226839 
L 344.820721 -34.226839 
L 343.444045 -34.226839 
L 342.067369 -34.226839 
L 340.690692 -34.226839 
L 339.314016 -34.226839 
L 337.937339 -34.226839 
L 336.560663 -34.226839 
L 335.183986 -34.226839 
L 333.80731 -34.226839 
L 332.430634 -34.226839 
L 331.053957 -34.226839 
L 329.677281 -34.226839 
L 328.300604 -34.226839 
L 326.923928 -34.226839 
L 325.547251 -34.226839 
L 324.170575 -34.226839 
L 322.793899 -34.226839 
L 321.417222 -34.226839 
L 320.040546 -34.226839 
L 318.663869 -34.226839 
L 317.287193 -34.226839 
L 315.910516 -34.226839 
L 314.53384 -34.226839 
L 313.157164 -34.226839 
L 311.780487 -34.226839 
L 310.403811 -34.226839 
L 309.027134 -34.226839 
L 307.650458 -34.226839 
L 306.273781 -34.226839 
L 304.897105 -34.226839 
L 303.520429 -34.226839 
L 302.143752 -34.226839 
L 300.767076 -34.226839 
L 299.390399 -34.226839 
L 298.013723 -34.226839 
L 296.637047 -34.226839 
L 295.26037 -34.226839 
L 293.883694 -34.226839 
L 292.507017 -34.226839 
L 291.130341 -34.226839 
L 289.753664 -34.226839 
L 288.376988 -34.226839 
L 287.000312 -34.226839 
L 285.623635 -34.226839 
L 284.246959 -34.226839 
L 282.870282 -34.226839 
L 281.493606 -34.226839 
L 280.116929 -34.226839 
L 278.740253 -34.226839 
L 277.363577 -34.226839 
L 275.9869 -34.226839 
L 274.610224 -34.226839 
L 273.233547 -34.226839 
L 271.856871 -34.226839 
L 270.480194 -34.226839 
L 269.103518 -34.226839 
L 267.726842 -34.226839 
L 266.350165 -34.226839 
L 264.973489 -34.226839 
L 263.596812 -34.226839 
L 262.220136 -34.226839 
L 260.843459 -34.226839 
L 259.466783 -34.226839 
L 258.090107 -34.226839 
L 256.71343 -34.226839 
L 255.336754 -34.226839 
L 253.960077 -34.226839 
L 252.583401 -34.226839 
L 251.206724 -34.226839 
L 249.830048 -34.226839 
L 248.453372 -34.226839 
L 247.076695 -34.226839 
L 245.700019 -34.226839 
L 244.323342 -34.226839 
L 242.946666 -34.226839 
L 241.569989 -34.226839 
L 240.193313 -34.226839 
L 238.816637 -34.226839 
L 237.43996 -34.226839 
L 236.063284 -34.226839 
L 234.686607 -34.226839 
L 233.309931 -34.226839 
L 231.933254 -34.226839 
L 230.556578 -34.226839 
L 229.179902 -34.226839 
L 227.803225 -34.226839 
L 226.426549 -34.226839 
L 225.049872 -34.226839 
L 223.673196 -34.226839 
L 222.29652 -34.226839 
L 220.919843 -34.226839 
L 219.543167 -34.226839 
L 218.16649 -34.226839 
L 216.789814 -34.226839 
L 215.413137 -34.226839 
L 214.036461 -34.226839 
L 212.659785 -34.226839 
L 211.283108 -34.226839 
L 209.906432 -34.226839 
L 208.529755 -34.226839 
L 207.153079 -34.226839 
L 205.776402 -34.226839 
L 204.399726 -34.226839 
L 203.02305 -34.226839 
L 201.646373 -34.226839 
L 200.269697 -34.226839 
L 198.89302 -34.226839 
L 197.516344 -34.226839 
L 196.139667 -34.226839 
L 194.762991 -34.226839 
L 193.386315 -34.226839 
L 192.009638 -34.226839 
L 190.632962 -34.226839 
L 189.256285 -34.226839 
L 187.879609 -34.226839 
L 186.502932 -34.226839 
L 185.126256 -34.226839 
L 183.74958 -34.226839 
L 182.372903 -34.226839 
L 180.996227 -34.226839 
L 179.61955 -34.226839 
L 178.242874 -34.226839 
L 176.866197 -34.226839 
L 175.489521 -34.226839 
L 174.112845 -34.226839 
L 172.736168 -34.226839 
L 171.359492 -34.226839 
L 169.982815 -34.226839 
L 168.606139 -34.226839 
L 167.229462 -34.226839 
L 165.852786 -34.226839 
L 164.47611 -34.226839 
L 163.099433 -34.226839 
L 161.722757 -34.226839 
L 160.34608 -34.226839 
L 158.969404 -34.226839 
L 157.592727 -34.226839 
L 156.216051 -34.226839 
L 154.839375 -34.226839 
L 153.462698 -34.226839 
L 152.086022 -34.226839 
L 150.709345 -34.226839 
L 149.332669 -34.226839 
L 147.955992 -34.226839 
L 146.579316 -34.226839 
L 145.20264 -34.226839 
L 143.825963 -34.226839 
L 142.449287 -34.226839 
L 141.07261 -34.226839 
L 139.695934 -34.226839 
L 138.319258 -34.226839 
L 136.942581 -34.226839 
L 135.565905 -34.226839 
L 134.189228 -34.226839 
L 132.812552 -34.226839 
L 131.435875 -34.226839 
L 130.059199 -34.226839 
L 128.682523 -34.226839 
L 127.305846 -34.226839 
L 125.92917 -34.226839 
L 124.552493 -34.226839 
L 123.175817 -34.226839 
L 121.79914 -34.226839 
L 120.422464 -34.226839 
L 119.045788 -34.226839 
L 117.669111 -34.226839 
L 116.292435 -34.226839 
L 114.915758 -34.226839 
L 113.539082 -34.226839 
L 112.162405 -34.226839 
L 110.785729 -34.226839 
L 109.409053 -34.226839 
L 108.032376 -34.226839 
L 106.6557 -34.226839 
L 105.279023 -34.226839 
L 103.902347 -34.226839 
L 102.52567 -34.226839 
L 101.148994 -34.226839 
L 99.772318 -34.226839 
L 98.395641 -34.226839 
L 97.018965 -34.226839 
L 95.642288 -34.226839 
L 94.265612 -34.226839 
L 92.888935 -34.226839 
L 91.512259 -34.226839 
L 90.135583 -34.226839 
L 88.758906 -34.226839 
L 87.38223 -34.226839 
L 86.005553 -34.226839 
L 84.628877 -34.226839 
L 83.2522 -34.226839 
L 81.875524 -34.226839 
L 80.498848 -34.226839 
L 79.122171 -34.226839 
L 77.745495 -34.226839 
L 76.368818 -34.226839 
L 74.992142 -34.226839 
L 73.615465 -34.226839 
L 72.238789 -34.226839 
L 70.862113 -34.226839 
L 69.485436 -34.226839 
L 68.10876 -34.226839 
L 66.732083 -34.226839 
L 65.355407 -34.226839 
L 63.978731 -34.226839 
L 62.602054 -34.226839 
L 61.225378 -34.226839 
L 59.848701 -34.226839 
L 58.472025 -34.226839 
z
" id="m96a5d562b4" style="stroke:#000000;stroke-width:0.1;"/>
    </defs>
    <g clip-path="url(#pbbad1d07bb)">
     <use style="stroke:#000000;stroke-width:0.1;" x="0" xlink:href="#m96a5d562b4" y="196.012732"/>
    </g>
   </g>
  </g>
  <g id="axes_5">
   <g id="line2d_1">
    <path clip-path="url(#pd918f8d6e3)" d="M 45.354331 160.368571 
L 50.261199 160.368571 
L 50.261199 21.470933 
L 45.354331 21.470933 
" style="fill:none;stroke:#000000;stroke-linecap:square;"/>
   </g>
   <g id="text_2">
    <!-- 0 -->
    <defs>
     <path d="M 31.78125 66.40625 
Q 24.171875 66.40625 20.328125 58.90625 
Q 16.5 51.421875 16.5 36.375 
Q 16.5 21.390625 20.328125 13.890625 
Q 24.171875 6.390625 31.78125 6.390625 
Q 39.453125 6.390625 43.28125 13.890625 
Q 47.125 21.390625 47.125 36.375 
Q 47.125 51.421875 43.28125 58.90625 
Q 39.453125 66.40625 31.78125 66.40625 
z
M 31.78125 74.21875 
Q 44.046875 74.21875 50.515625 64.515625 
Q 56.984375 54.828125 56.984375 36.375 
Q 56.984375 17.96875 50.515625 8.265625 
Q 44.046875 -1.421875 31.78125 -1.421875 
Q 19.53125 -1.421875 13.0625 8.265625 
Q 6.59375 17.96875 6.59375 36.375 
Q 6.59375 54.828125 13.0625 64.515625 
Q 19.53125 74.21875 31.78125 74.21875 
z
" id="DejaVuSans-48"/>
    </defs>
    <g transform="translate(35.756583 160.707592)scale(0.12 -0.12)">
     <use xlink:href="#DejaVuSans-48"/>
    </g>
   </g>
   <g id="text_3">
    <!-- 35 -->
    <defs>
     <path d="M 40.578125 39.3125 
Q 47.65625 37.796875 51.625 33 
Q 55.609375 28.21875 55.609375 21.1875 
Q 55.609375 10.40625 48.1875 4.484375 
Q 40.765625 -1.421875 27.09375 -1.421875 
Q 22.515625 -1.421875 17.65625 -0.515625 
Q 12.796875 0.390625 7.625 2.203125 
L 7.625 11.71875 
Q 11.71875 9.328125 16.59375 8.109375 
Q 21.484375 6.890625 26.8125 6.890625 
Q 36.078125 6.890625 40.9375 10.546875 
Q 45.796875 14.203125 45.796875 21.1875 
Q 45.796875 27.640625 41.28125 31.265625 
Q 36.765625 34.90625 28.71875 34.90625 
L 20.21875 34.90625 
L 20.21875 43.015625 
L 29.109375 43.015625 
Q 36.375 43.015625 40.234375 45.921875 
Q 44.09375 48.828125 44.09375 54.296875 
Q 44.09375 59.90625 40.109375 62.90625 
Q 36.140625 65.921875 28.71875 65.921875 
Q 24.65625 65.921875 20.015625 65.03125 
Q 15.375 64.15625 9.8125 62.3125 
L 9.8125 71.09375 
Q 15.4375 72.65625 20.34375 73.4375 
Q 25.25 74.21875 29.59375 74.21875 
Q 40.828125 74.21875 47.359375 69.109375 
Q 53.90625 64.015625 53.90625 55.328125 
Q 53.90625 49.265625 50.4375 45.09375 
Q 46.96875 40.921875 40.578125 39.3125 
z
" id="DejaVuSans-51"/>
     <path d="M 10.796875 72.90625 
L 49.515625 72.90625 
L 49.515625 64.59375 
L 19.828125 64.59375 
L 19.828125 46.734375 
Q 21.96875 47.46875 24.109375 47.828125 
Q 26.265625 48.1875 28.421875 48.1875 
Q 40.625 48.1875 47.75 41.5 
Q 54.890625 34.8125 54.890625 23.390625 
Q 54.890625 11.625 47.5625 5.09375 
Q 40.234375 -1.421875 26.90625 -1.421875 
Q 22.3125 -1.421875 17.546875 -0.640625 
Q 12.796875 0.140625 7.71875 1.703125 
L 7.71875 11.625 
Q 12.109375 9.234375 16.796875 8.0625 
Q 21.484375 6.890625 26.703125 6.890625 
Q 35.15625 6.890625 40.078125 11.328125 
Q 45.015625 15.765625 45.015625 23.390625 
Q 45.015625 31 40.078125 35.4375 
Q 35.15625 39.890625 26.703125 39.890625 
Q 22.75 39.890625 18.8125 39.015625 
Q 14.890625 38.140625 10.796875 36.28125 
z
" id="DejaVuSans-53"/>
    </defs>
    <g transform="translate(28.121583 29.171735)scale(0.12 -0.12)">
     <use xlink:href="#DejaVuSans-51"/>
     <use x="63.623047" xlink:href="#DejaVuSans-53"/>
    </g>
   </g>
  </g>
  <g id="axes_6">
   <g id="text_4">
    <!-- ATAC E14.5 FDE -->
    <defs>
     <path d="M 34.1875 63.1875 
L 20.796875 26.90625 
L 47.609375 26.90625 
z
M 28.609375 72.90625 
L 39.796875 72.90625 
L 67.578125 0 
L 57.328125 0 
L 50.6875 18.703125 
L 17.828125 18.703125 
L 11.1875 0 
L 0.78125 0 
z
" id="DejaVuSans-65"/>
     <path d="M -0.296875 72.90625 
L 61.375 72.90625 
L 61.375 64.59375 
L 35.5 64.59375 
L 35.5 0 
L 25.59375 0 
L 25.59375 64.59375 
L -0.296875 64.59375 
z
" id="DejaVuSans-84"/>
     <path id="DejaVuSans-32"/>
     <path d="M 37.796875 64.3125 
L 12.890625 25.390625 
L 37.796875 25.390625 
z
M 35.203125 72.90625 
L 47.609375 72.90625 
L 47.609375 25.390625 
L 58.015625 25.390625 
L 58.015625 17.1875 
L 47.609375 17.1875 
L 47.609375 0 
L 37.796875 0 
L 37.796875 17.1875 
L 4.890625 17.1875 
L 4.890625 26.703125 
z
" id="DejaVuSans-52"/>
     <path d="M 10.6875 12.40625 
L 21 12.40625 
L 21 0 
L 10.6875 0 
z
" id="DejaVuSans-46"/>
     <path d="M 9.8125 72.90625 
L 51.703125 72.90625 
L 51.703125 64.59375 
L 19.671875 64.59375 
L 19.671875 43.109375 
L 48.578125 43.109375 
L 48.578125 34.8125 
L 19.671875 34.8125 
L 19.671875 0 
L 9.8125 0 
z
" id="DejaVuSans-70"/>
     <path d="M 19.671875 64.796875 
L 19.671875 8.109375 
L 31.59375 8.109375 
Q 46.6875 8.109375 53.6875 14.9375 
Q 60.6875 21.78125 60.6875 36.53125 
Q 60.6875 51.171875 53.6875 57.984375 
Q 46.6875 64.796875 31.59375 64.796875 
z
M 9.8125 72.90625 
L 30.078125 72.90625 
Q 51.265625 72.90625 61.171875 64.09375 
Q 71.09375 55.28125 71.09375 36.53125 
Q 71.09375 17.671875 61.125 8.828125 
Q 51.171875 0 30.078125 0 
L 9.8125 0 
z
" id="DejaVuSans-68"/>
    </defs>
    <g transform="translate(763.458124 94.893252)scale(0.144 -0.144)">
     <use xlink:href="#DejaVuSans-65"/>
     <use x="68.298828" xlink:href="#DejaVuSans-84"/>
     <use x="129.273438" xlink:href="#DejaVuSans-65"/>
     <use x="197.666016" xlink:href="#DejaVuSans-67"/>
     <use x="267.490234" xlink:href="#DejaVuSans-32"/>
     <use x="299.277344" xlink:href="#DejaVuSans-69"/>
     <use x="362.460938" xlink:href="#DejaVuSans-49"/>
     <use x="426.083984" xlink:href="#DejaVuSans-52"/>
     <use x="489.707031" xlink:href="#DejaVuSans-46"/>
     <use x="521.494141" xlink:href="#DejaVuSans-53"/>
     <use x="585.117188" xlink:href="#DejaVuSans-32"/>
     <use x="616.904297" xlink:href="#DejaVuSans-70"/>
     <use x="674.423828" xlink:href="#DejaVuSans-68"/>
     <use x="751.425781" xlink:href="#DejaVuSans-69"/>
    </g>
   </g>
  </g>
  <g id="axes_7">
   <g id="line2d_2">
    <path clip-path="url(#pd8f01458b4)" d="M 195.203395 175.959122 
L 195.203395 161.785894 
" style="fill:none;stroke:#000000;stroke-linecap:square;stroke-width:3;"/>
   </g>
   <g id="line2d_3">
    <path clip-path="url(#pd8f01458b4)" d="M 195.203395 168.872508 
L 608.289105 168.872508 
" style="fill:none;stroke:#000000;stroke-linecap:square;stroke-width:3;"/>
   </g>
   <g id="line2d_4">
    <path clip-path="url(#pd8f01458b4)" d="M 608.289105 175.959122 
L 608.289105 161.785894 
" style="fill:none;stroke:#000000;stroke-linecap:square;stroke-width:3;"/>
   </g>
   <g id="text_5">
    <!-- 1 kb -->
    <defs>
     <path d="M 9.078125 75.984375 
L 18.109375 75.984375 
L 18.109375 31.109375 
L 44.921875 54.6875 
L 56.390625 54.6875 
L 27.390625 29.109375 
L 57.625 0 
L 45.90625 0 
L 18.109375 26.703125 
L 18.109375 0 
L 9.078125 0 
z
" id="DejaVuSans-107"/>
     <path d="M 48.6875 27.296875 
Q 48.6875 37.203125 44.609375 42.84375 
Q 40.53125 48.484375 33.40625 48.484375 
Q 26.265625 48.484375 22.1875 42.84375 
Q 18.109375 37.203125 18.109375 27.296875 
Q 18.109375 17.390625 22.1875 11.75 
Q 26.265625 6.109375 33.40625 6.109375 
Q 40.53125 6.109375 44.609375 11.75 
Q 48.6875 17.390625 48.6875 27.296875 
z
M 18.109375 46.390625 
Q 20.953125 51.265625 25.265625 53.625 
Q 29.59375 56 35.59375 56 
Q 45.5625 56 51.78125 48.09375 
Q 58.015625 40.1875 58.015625 27.296875 
Q 58.015625 14.40625 51.78125 6.484375 
Q 45.5625 -1.421875 35.59375 -1.421875 
Q 29.59375 -1.421875 25.265625 0.953125 
Q 20.953125 3.328125 18.109375 8.203125 
L 18.109375 0 
L 9.078125 0 
L 9.078125 75.984375 
L 18.109375 75.984375 
z
" id="DejaVuSans-98"/>
    </defs>
    <g transform="translate(622.775467 172.183758)scale(0.12 -0.12)">
     <use xlink:href="#DejaVuSans-49"/>
     <use x="63.623047" xlink:href="#DejaVuSans-32"/>
     <use x="95.410156" xlink:href="#DejaVuSans-107"/>
     <use x="153.320312" xlink:href="#DejaVuSans-98"/>
    </g>
   </g>
  </g>
  <g id="axes_8"/>
  <g id="axes_9"/>
  <g id="axes_10">
   <g id="line2d_5">
    <path clip-path="url(#p99fd84752c)" style="fill:none;stroke:#000000;stroke-linecap:square;stroke-width:3;"/>
   </g>
   <g id="line2d_6">
    <path clip-path="url(#p99fd84752c)" style="fill:none;stroke:#000000;stroke-linecap:square;stroke-width:3;"/>
   </g>
   <g id="line2d_7">
    <path clip-path="url(#p99fd84752c)" style="fill:none;stroke:#000000;stroke-linecap:square;stroke-width:3;"/>
   </g>
   <g id="text_6">
    <!-- 5 kb -->
    <g transform="translate(35921.7756 186.356986)scale(0.12 -0.12)">
     <use xlink:href="#DejaVuSans-53"/>
     <use x="63.623047" xlink:href="#DejaVuSans-32"/>
     <use x="95.410156" xlink:href="#DejaVuSans-107"/>
     <use x="153.320312" xlink:href="#DejaVuSans-98"/>
    </g>
   </g>
  </g>
  <g id="axes_11"/>
  <g id="axes_12"/>
 </g>
 <defs>
  <clipPath id="p1b602e08bd">
   <rect height="14.173228" width="686.961537" x="58.472025" y="5.880382"/>
  </clipPath>
  <clipPath id="pbbad1d07bb">
   <rect height="141.732283" width="686.961537" x="58.472025" y="20.05361"/>
  </clipPath>
  <clipPath id="pd918f8d6e3">
   <rect height="141.732283" width="9.813736" x="45.354331" y="20.05361"/>
  </clipPath>
  <clipPath id="pd8f01458b4">
   <rect height="14.173228" width="686.961537" x="58.472025" y="161.785894"/>
  </clipPath>
  <clipPath id="p99fd84752c">
   <rect height="14.173228" width="686.961537" x="58.472025" y="175.959122"/>
  </clipPath>
 </defs>
</svg>
